<svg width="136" height="141" fill="" xmlns="http://www.w3.org/2000/svg">
<path fill-rule="evenodd" clip-rule="evenodd" d="M114.947 1.06963C117.571 0.761426 121.008 0.418978 122.61 0.281999C124.213 0.14502 125.862 0.0080433 126.28 0.0080433C127.348 -0.0946909 128.509 0.795672 129.205 2.16546C130.065 3.80921 130.506 5.58993 130.97 9.35685C131.086 10.2815 131.295 11.9252 131.435 12.9525C131.574 13.9799 131.829 16.1373 132.015 17.7468C132.317 20.5549 132.665 23.2602 133.06 26.1368C133.135 26.6208 133.219 27.2887 133.294 27.886C133.336 28.2183 133.375 28.5288 133.409 28.7736L133.594 30.0749H66.7856C11.5644 30.0749 0 30.0064 0 29.6297C0 29.2188 0.487655 24.2533 1.41652 15.1785C1.46928 14.6727 1.5287 14.0835 1.58848 13.4908C1.68656 12.5182 1.78559 11.5362 1.85773 10.8979C2.34539 6.06936 3.11171 3.70647 4.64434 2.40517C5.61965 1.54906 5.82864 1.51481 8.47591 1.5833C11.1696 1.65179 15.3031 1.92575 36.458 3.36403C41.8919 3.74072 47.9992 4.11741 50.0427 4.22014C50.6082 4.25805 51.2768 4.30119 51.9929 4.34741C53.8647 4.46821 56.0613 4.60997 57.5898 4.73381C62.5824 5.17899 72.7768 5.17899 77.3282 4.76806C78.544 4.6415 80.0858 4.51494 81.4325 4.40439C82.2723 4.33546 83.0362 4.27275 83.5981 4.22014C87.5225 3.94619 107.284 1.95999 114.947 1.06963ZM1.80119 100.888C1.00356 98.5008 0.288434 95.397 0.453462 95.0559C0.645995 94.6466 135.914 94.5443 135.914 94.9877C135.914 95.7722 134.456 100.002 133.824 101.025C133.109 102.184 129.616 106.004 127.25 108.187C126.645 108.733 126.095 109.279 126.012 109.381C125.93 109.483 124.94 110.404 123.812 111.428C122.684 112.451 121.639 113.474 121.474 113.679C121.337 113.883 120.402 114.838 119.411 115.759C118.799 116.329 117.651 117.445 116.396 118.666C115.62 119.42 114.804 120.214 114.048 120.944C112.095 122.888 109.537 125.309 108.409 126.367C107.282 127.424 106.292 128.379 106.209 128.481C105.879 128.925 101.973 132.677 98.6728 135.712C94.8222 139.259 93.4469 140.01 92.8968 138.85C92.7318 138.475 92.0167 136.19 91.3291 133.768C89.7888 128.345 88.9362 126.196 88.001 125.309L87.2859 124.661L85.223 125.889C84.0678 126.606 82.9951 127.39 82.8301 127.663C82.6376 127.936 82.335 128.14 82.1425 128.14C81.9224 128.14 81.7299 128.243 81.6749 128.379C81.6474 128.55 80.7947 129.334 79.8046 130.153C78.8144 130.971 76.7241 132.745 75.1288 134.109C73.5335 135.474 71.4156 137.145 70.398 137.827C68.6377 139.021 68.4726 139.055 67.3724 138.714C66.7123 138.475 65.5021 137.656 64.677 136.872C63.8518 136.053 61.679 134.177 59.8637 132.677C59.4262 132.315 58.9425 131.916 58.4409 131.502C56.8609 130.198 55.104 128.748 54.0602 127.868C51.3922 125.616 49.6044 124.934 48.6967 125.821C47.7341 126.776 46.7439 129.368 45.3962 134.348C44.626 137.213 43.8559 139.771 43.6634 140.01C43.3883 140.385 43.1133 140.385 42.2056 139.976C41.188 139.532 39.1801 137.725 27.2706 126.435C24.7676 124.047 19.8993 119.477 16.4062 116.203C5.98191 106.448 2.4338 102.73 1.80119 100.888Z" fill="current"/>
</svg>
