<svg class="shadow" width="32" height="34" viewBox="0 0 32 34" fill="none" xmlns="http://www.w3.org/2000/svg">
<rect width="32" height="34" fill="white"/>
<path d="M28.1066 0.424506C27.7578 0.456405 27.0097 0.536153 26.4385 0.607926C24.7703 0.815271 20.4684 1.27781 19.6141 1.34161C19.2957 1.37351 18.679 1.42136 18.2493 1.4692C17.2585 1.5649 15.0393 1.5649 13.9525 1.46123C13.4925 1.42136 12.7544 1.37351 12.3096 1.34161C11.8647 1.31768 10.5353 1.22996 9.35237 1.14224C4.74721 0.807296 3.84741 0.743497 3.26102 0.727548C2.68474 0.711598 2.63925 0.719574 2.42694 0.918943C2.0933 1.22199 1.92649 1.77225 1.82033 2.89669C1.79505 3.13594 1.75461 3.58253 1.72428 3.89354C1.52208 6.00686 1.41592 7.16321 1.41592 7.25891C1.41592 7.34663 3.93334 7.36258 15.9543 7.36258H30.4977L30.4572 7.05954C30.437 6.90004 30.4067 6.62092 30.3814 6.44548C30.2955 5.77559 30.2197 5.14559 30.1539 4.49165C30.1135 4.11684 30.0579 3.61442 30.0276 3.37518C29.9972 3.13594 29.9517 2.75315 29.9265 2.53783C29.8254 1.6606 29.7293 1.24591 29.5423 0.86312C29.3906 0.544128 29.1379 0.336783 28.9053 0.360708C28.8144 0.360708 28.4554 0.392606 28.1066 0.424506Z" fill="current"/>
<path d="M1.51463 22.4951C1.47871 22.5746 1.63438 23.2974 1.80802 23.8534C1.94573 24.2823 2.71811 25.1481 4.98734 27.4197C5.74774 28.1823 6.80752 29.2466 7.35237 29.8026C9.94492 32.4317 10.382 32.8527 10.6035 32.9559C10.8011 33.0512 10.861 33.0512 10.9209 32.9639C10.9628 32.9083 11.1304 32.3126 11.2981 31.6454C11.5915 30.4857 11.807 29.882 12.0166 29.6596C12.2142 29.4531 12.6033 29.612 13.1841 30.1362C13.4835 30.4063 14.0523 30.9067 14.4475 31.2562C14.8426 31.6056 15.3156 32.0425 15.4953 32.2331C15.6749 32.4158 15.9383 32.6064 16.082 32.662C16.3215 32.7415 16.3575 32.7335 16.7406 32.4555C16.9622 32.2967 17.4232 31.9075 17.7705 31.5898C18.1178 31.272 18.5728 30.859 18.7883 30.6684C19.0039 30.4777 19.1895 30.2951 19.1955 30.2553C19.2075 30.2236 19.2494 30.1997 19.2973 30.1997C19.3392 30.1997 19.4051 30.1521 19.447 30.0885C19.4829 30.025 19.7164 29.8423 19.9679 29.6755L20.4169 29.3896L20.5726 29.5405C20.7762 29.747 20.9618 30.2474 21.2971 31.5103C21.4468 32.0743 21.6024 32.6064 21.6384 32.6938C21.7581 32.9639 22.0575 32.7891 22.8957 31.9631C23.6142 31.2562 24.4644 30.3824 24.5363 30.2792C24.5542 30.2553 24.7698 30.0329 25.0153 29.7867C25.2607 29.5405 25.8176 28.9765 26.2427 28.5238C26.6738 28.079 27.1947 27.5309 27.4102 27.3165C27.6258 27.102 27.8294 26.8796 27.8593 26.832C27.8952 26.7843 28.1227 26.546 28.3682 26.3077C28.6137 26.0694 28.8293 25.855 28.8472 25.8312C28.8652 25.8073 28.9849 25.6802 29.1166 25.5532C29.6316 25.0448 30.392 24.1552 30.5476 23.8852C30.6854 23.6469 31.0027 22.6619 31.0027 22.4793C31.0027 22.376 1.55655 22.3998 1.51463 22.4951Z" fill="current"/>
</svg>
