<svg width="339" height="379" viewBox="0 0 339 379" fill="none" xmlns="http://www.w3.org/2000/svg">
<rect width="339" height="379" fill="white"/>
<path d="M297.755 4.73205C294.06 5.08763 286.134 5.97659 280.083 6.77665C262.41 9.08793 216.838 14.2439 207.787 14.955C204.414 15.3106 197.88 15.844 193.328 16.3774C182.832 17.4441 159.323 17.4441 147.809 16.2885C142.936 15.844 135.117 15.3106 130.405 14.955C125.692 14.6884 111.608 13.7105 99.0767 12.7327C50.2908 8.99904 40.7585 8.28787 34.5465 8.11008C28.4416 7.93229 27.9596 8.02119 25.7104 10.2436C22.176 13.6216 20.4088 19.7554 19.2842 32.2897C19.0164 34.9565 18.588 39.9347 18.2667 43.4016C16.1246 66.9589 15 79.8488 15 80.9155C15 81.8934 41.6689 82.0712 169.016 82.0712H323.085L322.656 78.6931C322.442 76.9152 322.121 73.8039 321.853 71.8482C320.943 64.381 320.14 57.3582 319.443 50.0688C319.015 45.8907 318.426 40.2903 318.105 37.6234C317.783 34.9565 317.301 30.6895 317.034 28.2894C315.962 18.5109 314.945 13.8883 312.964 9.62131C311.357 6.06549 308.679 3.7542 306.216 4.02089C305.252 4.02089 301.45 4.37647 297.755 4.73205Z" fill="current"/>
<path d="M16.0457 250.755C15.6651 251.64 17.3143 259.697 19.1537 265.895C20.6126 270.676 28.795 280.327 52.8347 305.649C60.8902 314.149 72.1172 326.013 77.8892 332.211C105.354 361.518 109.984 366.21 112.331 367.361C114.424 368.424 115.059 368.424 115.693 367.45C116.137 366.83 117.913 360.19 119.689 352.752C122.797 339.826 125.081 333.097 127.301 330.617C129.394 328.315 133.517 330.086 139.669 335.93C142.841 338.94 148.867 344.518 153.053 348.414C157.239 352.31 162.25 357.179 164.153 359.304C166.056 361.341 168.847 363.466 170.369 364.086C172.906 364.971 173.287 364.882 177.346 361.783C179.693 360.013 184.577 355.674 188.256 352.133C191.935 348.591 196.756 343.987 199.039 341.862C201.323 339.737 203.289 337.701 203.352 337.258C203.479 336.904 203.923 336.638 204.431 336.638C204.875 336.638 205.572 336.107 206.016 335.399C206.397 334.69 208.871 332.654 211.535 330.795L216.292 327.607L217.941 329.289C220.098 331.591 222.064 337.169 225.616 351.247C227.202 357.534 228.851 363.466 229.231 364.44C230.5 367.45 233.671 365.502 242.552 356.294C250.163 348.414 259.17 338.675 259.931 337.524C260.121 337.258 262.405 334.779 265.005 332.034C267.606 329.289 273.505 323.003 278.008 317.956C282.575 312.998 288.094 306.889 290.377 304.498C292.661 302.108 294.817 299.629 295.134 299.097C295.515 298.566 297.925 295.91 300.526 293.254C303.126 290.597 305.41 288.207 305.6 287.941C305.79 287.676 307.059 286.259 308.454 284.842C313.909 279.176 321.965 269.259 323.614 266.249C325.073 263.593 328.435 252.614 328.435 250.577C328.435 249.426 16.4897 249.692 16.0457 250.755Z" fill="current"/>
</svg>
