<svg width="606" height="75" viewBox="0 0 606 75" fill="none" xmlns="http://www.w3.org/2000/svg">
<mask id="path-1-inside-1" fill="white">
<path class="path" d="M8.4375 72.3125C7.8125 72.3125 6.84375 72.2188 5.53125 72.0312C4.53125 70.9688 3.625 69.5312 2.8125 67.7188C2.0625 65.8438 1.46875 63.875 1.03125 61.8125C0.65625 59.6875 0.46875 57.5938 0.46875 55.5312C0.53125 53.4062 0.90625 51.5312 1.59375 49.9062C1.59375 49.8438 1.875 49.0938 2.4375 47.6562C3.0625 46.2188 3.84375 44.4062 4.78125 42.2188C5.71875 39.9688 6.78125 37.5 7.96875 34.8125C9.15625 32.0625 10.3438 29.375 11.5312 26.75C12.7188 24.125 13.8438 21.75 14.9062 19.625C16.0312 17.4375 17 15.75 17.8125 14.5625C18.375 13.6875 18.875 12.8438 19.3125 12.0312C19.8125 11.2188 20.2812 10.4688 20.7188 9.78125C21.4062 8.65625 22.0312 7.625 22.5938 6.6875C23.2188 5.6875 23.875 4.8125 24.5625 4.0625C25.3125 3.25 26.125 2.5625 27 2C27.875 1.375 28.9375 0.84375 30.1875 0.40625C30.9375 0.71875 31.5938 1.0625 32.1562 1.4375C32.7188 1.75 33.2188 2.15625 33.6562 2.65625L33.9375 3.96875C34.0625 4.40625 34.25 4.71875 34.5 4.90625C34.8125 5.03125 35.0625 5.09375 35.25 5.09375C36.0625 5.28125 36.75 5.5 37.3125 5.75C37.9375 5.9375 38.5938 6.0625 39.2812 6.125C39.5312 6.5 39.75 6.875 39.9375 7.25C40.1875 7.625 40.4375 7.96875 40.6875 8.28125C41.9375 10.0938 42.9688 11.8438 43.7812 13.5312C44.5938 15.2188 44.5938 17.0625 43.7812 19.0625L43.875 20.0938C44.1875 20.5312 44.3438 20.9375 44.3438 21.3125C44.3438 21.6875 44.2812 22.2188 44.1562 22.9062C44.0938 23.4062 44.0312 23.9688 43.9688 24.5938C43.9688 25.1562 44.0625 25.7812 44.25 26.4688L44.9062 27.2188C45.9062 27.7188 46.875 27.9688 47.8125 27.9688C49.0625 27.9688 50.1875 27.6875 51.1875 27.125C52.1875 26.5625 53.125 26 54 25.4375C54.6875 24.9375 55.3125 24.5312 55.875 24.2188C56.5 23.9062 57.0938 23.6875 57.6562 23.5625C58.9688 22.3125 60.1562 21.2188 61.2188 20.2812C62.3438 19.2812 63.5 18.2812 64.6875 17.2812C66.9375 15.4688 69.125 13.5312 71.25 11.4688C73.375 9.34375 75.0625 6.71875 76.3125 3.59375C77 3.15625 77.7812 2.9375 78.6562 2.9375C79.5312 2.9375 80.4062 3.125 81.2812 3.5C82.1562 3.8125 83.0312 4.1875 83.9062 4.625C84.0938 4.75 84.25 4.84375 84.375 4.90625C84.5625 4.96875 84.75 5.0625 84.9375 5.1875C84.9375 5.875 85.2188 6.5 85.7812 7.0625C86.0938 7.3125 86.3125 7.46875 86.4375 7.53125C86.5625 7.59375 86.6875 7.65625 86.8125 7.71875C87.3125 8.03125 87.7188 8.3125 88.0312 8.5625C88.4062 8.8125 88.6875 9.15625 88.875 9.59375C89.4375 11.2812 90.375 12.5938 91.6875 13.5312C91.5625 14.2188 91.5938 14.9062 91.7812 15.5938C91.9688 16.2188 92.1875 16.8438 92.4375 17.4688C92.5625 17.7188 92.6562 17.9688 92.7188 18.2188C92.7812 18.4062 92.875 18.6562 93 18.9688L90.9375 18.7812L91.2188 20.8438C91.4062 21.9062 91.3125 23.0938 90.9375 24.4062C90.625 25.7188 90.25 26.75 89.8125 27.5C89.9375 29.375 90 30.875 90 32C90 33.0625 89.9375 34.0625 89.8125 35C89.6875 35.9375 89.4688 36.8438 89.1562 37.7188C88.9062 38.5312 88.5625 39.4062 88.125 40.3438C88.375 45.0938 87.8125 49.4375 86.4375 53.375C85.125 57.3125 83.6875 61 82.125 64.4375C81.9375 64.875 81.75 65.2812 81.5625 65.6562C81.375 66.0312 81.2188 66.4062 81.0938 66.7812C80.4062 66.9688 79.7812 67.1875 79.2188 67.4375C78.6562 67.6875 78.125 67.9688 77.625 68.2812C76.9375 68.7188 76.25 69.0938 75.5625 69.4062C74.875 69.6562 74.1562 69.7812 73.4062 69.7812C70.4062 67.5938 68.8438 63.8125 68.7188 58.4375C68.6562 53.0625 69.8125 46.2188 72.1875 37.9062C72.625 37.5938 72.8125 37.125 72.75 36.5V35.4688L71.8125 35.375C71.5 35.375 71.2188 35.4062 70.9688 35.4688C70.7188 35.5312 70.5312 35.8125 70.4062 36.3125C68.4062 37.75 66.2188 39.25 63.8438 40.8125C61.5312 42.3125 59.125 43.7188 56.625 45.0312C54.125 46.2812 51.5625 47.3438 48.9375 48.2188C46.375 49.0312 43.875 49.4375 41.4375 49.4375C35.1875 49.4375 30.4688 46.25 27.2812 39.875L26.4375 38.1875L25.5 39.6875C25.3125 40 24.9688 40.625 24.4688 41.5625C24.0312 42.4375 23.5625 43.4688 23.0625 44.6562C22.625 45.8438 22.2188 47.0625 21.8438 48.3125C21.5312 49.5625 21.4375 50.6562 21.5625 51.5938C20.8125 52.2812 20.0625 53.0625 19.3125 53.9375C18.625 54.8125 18.125 55.8125 17.8125 56.9375C17.6875 57.25 17.6562 57.5625 17.7188 57.875C17.7812 58.125 17.875 58.4062 18 58.7188C17.9375 59.1562 17.8125 59.4688 17.625 59.6562C17.4375 59.8438 17.2188 60.0312 16.9688 60.2188C16.6562 60.5312 16.3438 60.875 16.0312 61.25C15.7188 61.5625 15.4375 61.9375 15.1875 62.375C15.0625 62.75 14.9688 63.1562 14.9062 63.5938C14.8438 63.9688 14.7812 64.3125 14.7188 64.625C14.7188 65.3125 14.625 65.7812 14.4375 66.0312C13.8125 67.3438 13.25 68.4375 12.75 69.3125C12.3125 70.125 11.875 70.75 11.4375 71.1875C11 71.625 10.5312 71.9062 10.0312 72.0312C9.59375 72.2188 9.0625 72.3125 8.4375 72.3125ZM148.125 42.875C148.062 43.625 148.125 44.3438 148.312 45.0312C148.5 45.7188 148.719 46.4062 148.969 47.0938C149.281 47.7188 149.562 48.375 149.812 49.0625C150.062 49.75 150.25 50.4375 150.375 51.125C150.5 52 150.5 52.9688 150.375 54.0312C150.25 55.0312 150.031 56.0312 149.719 57.0312C149.406 57.9688 149 58.8438 148.5 59.6562C148 60.4062 147.406 60.9688 146.719 61.3438C145.844 62.4688 144.781 63.3438 143.531 63.9688C142.281 64.5938 141.125 65.3438 140.062 66.2188C139.375 66.6562 138.594 66.9688 137.719 67.1562C136.906 67.3438 136.062 67.5312 135.188 67.7188C134.5 68.0938 133.688 68.5 132.75 68.9375C131.812 69.3125 130.844 69.6875 129.844 70.0625C128.844 70.375 127.844 70.625 126.844 70.8125C125.844 70.9375 124.969 70.9688 124.219 70.9062C122.344 71.5938 120.5 72.0312 118.688 72.2188C116.938 72.4688 114.875 72.3438 112.5 71.8438C110.25 72.1562 108.156 72.0625 106.219 71.5625C104.344 71.0625 102.656 70.2812 101.156 69.2188C99.7188 68.0938 98.4375 66.7812 97.3125 65.2812C96.25 63.7188 95.375 62.0938 94.6875 60.4062C94.1875 56.8438 94.3125 53.625 95.0625 50.75C95.8125 47.8125 96.875 45.125 98.25 42.6875C99.6875 40.1875 101.312 37.9062 103.125 35.8438C104.938 33.7188 106.688 31.6562 108.375 29.6562C108.75 29.7812 109.031 29.7812 109.219 29.6562C109.469 29.4688 109.688 29.25 109.875 29C110.062 28.6875 110.25 28.4062 110.438 28.1562C110.688 27.9062 110.969 27.75 111.281 27.6875C111.719 26.75 112.344 26.0625 113.156 25.625C114.031 25.125 114.719 24.4375 115.219 23.5625C115.781 23.4375 116.25 23.25 116.625 23C117 22.75 117.344 22.4688 117.656 22.1562C118.031 21.8438 118.406 21.5625 118.781 21.3125C119.156 21 119.594 20.7812 120.094 20.6562V19.625C121.219 19.125 122.031 18.5625 122.531 17.9375C123.094 17.25 123.75 16.4375 124.5 15.5C125.062 15.4375 125.5 15.4062 125.812 15.4062C126.188 15.4062 126.719 15.3438 127.406 15.2188C127.906 14.3438 128.344 13.6875 128.719 13.25C129.156 12.8125 129.781 12.3438 130.594 11.8438C131.344 12.2188 132.156 12.4688 133.031 12.5938C133.969 12.7188 134.781 13.125 135.469 13.8125C135.531 14.4375 135.719 14.9375 136.031 15.3125C136.344 15.625 136.688 15.9375 137.062 16.25C137.438 16.5 137.781 16.7812 138.094 17.0938C138.469 17.4062 138.719 17.8438 138.844 18.4062C139.094 18.4688 139.25 18.4375 139.312 18.3125C139.438 18.1875 139.625 18.1562 139.875 18.2188C140.062 19.0938 140.281 19.6875 140.531 20C140.781 20.25 141.031 20.7812 141.281 21.5938C140.969 22.2188 140.719 22.875 140.531 23.5625C140.406 24.1875 140.031 24.6562 139.406 24.9688C139.344 25.4062 139.469 25.6562 139.781 25.7188C140.094 25.7188 140.281 25.875 140.344 26.1875C140.406 26.75 140.312 27.1562 140.062 27.4062C141.562 29.8438 142.906 32.4375 144.094 35.1875C145.281 37.875 146.625 40.4375 148.125 42.875ZM136.406 51.7812C136.656 51.0938 136.969 50.5312 137.344 50.0938C137.781 49.6562 138.031 49 138.094 48.125C137.781 47.625 137.594 47.25 137.531 47C137.469 46.6875 137.438 46.2188 137.438 45.5938C136.062 43.6562 134.875 41.5938 133.875 39.4062C132.875 37.1562 131.75 35.0625 130.5 33.125C130.375 33.375 130.156 33.625 129.844 33.875C129.531 34.125 129.188 34.0625 128.812 33.6875C128.688 34.1875 128.469 34.5625 128.156 34.8125C127.844 35 127.5 35.0938 127.125 35.0938C126.75 35.0312 126.344 34.9375 125.906 34.8125C125.531 34.625 125.188 34.4062 124.875 34.1562C123.062 35.5938 121.25 37 119.438 38.375C117.625 39.75 116 41.3438 114.562 43.1562C114.312 43.2812 114.156 43.3438 114.094 43.3438C114.031 43.2812 113.844 43.3125 113.531 43.4375C113.031 44.625 112.406 45.7188 111.656 46.7188C110.969 47.6562 110.281 48.625 109.594 49.625C108.906 50.625 108.312 51.6875 107.812 52.8125C107.312 53.9375 107.031 55.25 106.969 56.75C108.031 57.625 109.281 58.1562 110.719 58.3438C112.156 58.5312 113.625 58.5625 115.125 58.4375C116.688 58.3125 118.188 58.125 119.625 57.875C121.125 57.5625 122.5 57.4062 123.75 57.4062C126.375 56.7812 128.625 55.9688 130.5 54.9688C132.375 53.9062 134.344 52.8438 136.406 51.7812ZM200.062 45.6875C200 46 199.938 46.2812 199.875 46.5312C199.812 46.7188 199.75 46.9062 199.688 47.0938C199.625 47.2812 199.594 47.5312 199.594 47.8438C199.594 48.0938 199.594 48.4375 199.594 48.875C197.719 52.1875 195.344 54.9688 192.469 57.2188C189.656 59.4688 186.531 61.4688 183.094 63.2188C179.719 64.9062 176.188 66.4688 172.5 67.9062C168.812 69.2812 165.219 70.7812 161.719 72.4062C160.219 72.0312 159.062 71.4062 158.25 70.5312C157.5 69.6562 156.906 68.6562 156.469 67.5312C156.094 66.3438 155.812 65.0625 155.625 63.6875C155.5 62.25 155.375 60.7812 155.25 59.2812C155.438 58.5938 155.688 58.0312 156 57.5938C156.375 57.0938 156.562 56.4062 156.562 55.5312C157.062 53.9062 157.562 52.3125 158.062 50.75C158.562 49.1875 158.875 47.5938 159 45.9688C159.188 45.4688 159.531 45.125 160.031 44.9375C160.344 41.9375 160.344 38.9062 160.031 35.8438C159.781 32.7188 159.281 29.8125 158.531 27.125C158.594 26.5 158.656 26.0625 158.719 25.8125C158.844 25.5 158.844 25.2812 158.719 25.1562C158.656 24.6562 158.812 24.4062 159.188 24.4062C159.625 24.4062 160.062 24.4062 160.5 24.4062C160.5 23.4688 160.312 22.5312 159.938 21.5938C159.625 20.6562 159.312 19.5938 159 18.4062C159.438 17.4688 159.719 16.5625 159.844 15.6875C159.969 14.75 160.25 13.9375 160.688 13.25C164.062 14.3125 167.281 15.5938 170.344 17.0938C173.469 18.5938 176.531 19.6875 179.531 20.375C181.781 22 184.094 23.625 186.469 25.25C188.844 26.8125 191 28.5625 192.938 30.5C194.875 32.375 196.5 34.5312 197.812 36.9688C199.125 39.4062 199.875 42.3125 200.062 45.6875ZM177.844 50.8438C179.156 50.3438 180.438 49.8125 181.688 49.25C183 48.6875 184.188 48.0625 185.25 47.375C186.375 46.625 187.375 45.7812 188.25 44.8438C189.125 43.9062 189.844 42.7812 190.406 41.4688C190.031 40.7188 189.531 40.0625 188.906 39.5C188.281 38.875 187.656 38.3125 187.031 37.8125C186.406 37.25 185.781 36.6875 185.156 36.125C184.594 35.5625 184.125 34.875 183.75 34.0625C182.938 33.9375 182.219 33.7188 181.594 33.4062C180.969 33.0312 180.344 32.6875 179.719 32.375C179.156 32 178.531 31.6562 177.844 31.3438C177.219 31.0312 176.469 30.8438 175.594 30.7812C174.219 30.0938 172.969 29.5938 171.844 29.2812C170.781 28.9688 169.969 28.5625 169.406 28.0625C168.969 28.0625 168.625 28.1562 168.375 28.3438C169 30.7188 169.469 32.9688 169.781 35.0938C170.094 37.1562 170.25 39.25 170.25 41.375C170.312 43.4375 170.219 45.5625 169.969 47.75C169.719 49.9375 169.375 52.3125 168.938 54.875C169.562 54.8125 170.125 54.6875 170.625 54.5C171.188 54.25 171.719 54 172.219 53.75C172.781 53.5 173.344 53.2812 173.906 53.0938C174.531 52.8438 175.25 52.6875 176.062 52.625C176.25 52.25 176.5 51.9375 176.812 51.6875C177.188 51.4375 177.531 51.1562 177.844 50.8438ZM252.938 18.2188C253 18.6562 253 19 252.938 19.25C252.938 19.4375 252.906 19.625 252.844 19.8125C252.844 20 252.844 20.2188 252.844 20.4688C252.844 20.6562 252.906 20.9688 253.031 21.4062C251.719 23.5312 250.188 25 248.438 25.8125C246.75 26.5625 244.906 27.125 242.906 27.5C240.906 27.8125 238.844 28.1562 236.719 28.5312C234.656 28.9062 232.594 29.7188 230.531 30.9688C229.719 30.6562 228.969 30.6562 228.281 30.9688C227.656 31.2812 226.719 31.375 225.469 31.25C225.094 31.625 224.625 31.9062 224.062 32.0938C223.5 32.2188 222.938 32.375 222.375 32.5625C222.625 33.125 222.719 33.7188 222.656 34.3438C222.656 34.9062 222.75 35.375 222.938 35.75C225.125 35.9375 227.531 35.9062 230.156 35.6562C232.844 35.4062 235.469 35.25 238.031 35.1875C238.094 35.5 238.062 35.7188 237.938 35.8438C237.812 35.9062 237.781 36.0625 237.844 36.3125C238.281 36.625 238.719 37.0312 239.156 37.5312C239.594 37.9688 240.031 38.4062 240.469 38.8438C240.906 39.2812 241.344 39.6562 241.781 39.9688C242.281 40.2188 242.844 40.3125 243.469 40.25C243.719 40.75 243.875 41.3125 243.938 41.9375C244.062 42.5 244 43.0938 243.75 43.7188C242.75 44.4062 241.75 45.125 240.75 45.875C239.75 46.5625 238.688 47.1875 237.562 47.75C236.5 48.3125 235.344 48.7812 234.094 49.1562C232.906 49.4688 231.562 49.5938 230.062 49.5312C229.75 49.5312 229.5 49.5312 229.312 49.5312C229.188 49.5312 229 49.4375 228.75 49.25C228.25 49.5625 227.531 49.6562 226.594 49.5312C225.719 49.4062 225.031 49.5 224.531 49.8125C223.844 49.5 223 49.375 222 49.4375C221.062 49.4375 220.219 49.3125 219.469 49.0625C218.469 50.375 217.562 51.7812 216.75 53.2812C215.938 54.7812 215.219 56.375 214.594 58.0625C216.719 58.375 218.469 58.5 219.844 58.4375C221.281 58.375 222.625 58.2812 223.875 58.1562C225.125 57.9688 226.406 57.8125 227.719 57.6875C229.031 57.5 230.688 57.4375 232.688 57.5C233.938 56.8125 235.406 56.375 237.094 56.1875C238.844 55.9375 240.438 55.5625 241.875 55.0625C242.375 55.25 242.812 55.5938 243.188 56.0938C243.562 56.5312 243.906 56.9688 244.219 57.4062C244.594 57.7812 244.969 58.125 245.344 58.4375C245.719 58.75 246.188 58.875 246.75 58.8125C247 59.0625 247.156 59.375 247.219 59.75C247.344 60.0625 247.438 60.375 247.5 60.6875C247.562 61 247.656 61.2812 247.781 61.5312C247.969 61.7188 248.25 61.7812 248.625 61.7188C247.688 63.7812 246.594 65.375 245.344 66.5C244.156 67.5625 242.781 68.375 241.219 68.9375C239.656 69.5 237.906 69.9375 235.969 70.25C234.094 70.5625 232 70.9375 229.688 71.375C229.125 71.5 228.656 71.4688 228.281 71.2812C227.906 71.1562 227.469 71.0938 226.969 71.0938C225.531 71.4062 223.812 71.6875 221.812 71.9375C219.812 72.1875 217.781 72.2812 215.719 72.2188C213.656 72.1562 211.688 71.875 209.812 71.375C207.938 70.9375 206.406 70.125 205.219 68.9375C204.719 68.5 204.375 68 204.188 67.4375C204.062 66.8125 203.656 66.3438 202.969 66.0312C202.906 65.2188 202.781 64.3125 202.594 63.3125C202.406 62.3125 202.219 61.2812 202.031 60.2188C201.844 59.0938 201.688 58 201.562 56.9375C201.5 55.875 201.562 54.9062 201.75 54.0312C201.938 53.0938 202.312 52.25 202.875 51.5C203.5 50.75 203.719 49.9375 203.531 49.0625C203.844 49 204.031 48.8438 204.094 48.5938C204.156 48.2812 204.406 48.1562 204.844 48.2188C205.219 47.0938 205.625 46.0312 206.062 45.0312C206.5 44.0312 206.938 43.0625 207.375 42.125C207.875 41.1875 208.344 40.25 208.781 39.3125C209.281 38.3125 209.75 37.2188 210.188 36.0312C209.312 35.2188 208.656 34.3438 208.219 33.4062C207.844 32.4062 207.562 31.4375 207.375 30.5C207.188 29.5 207.031 28.5 206.906 27.5C206.781 26.4375 206.562 25.375 206.25 24.3125C206.875 23.375 207.625 22.625 208.5 22.0625C209.438 21.4375 210.438 20.9375 211.5 20.5625C212.562 20.1875 213.719 19.875 214.969 19.625C216.219 19.375 217.531 19.0938 218.906 18.7812C221.406 17.9688 223.625 17.3438 225.562 16.9062C227.562 16.4688 229.5 16.125 231.375 15.875C233.312 15.5625 235.312 15.2812 237.375 15.0312C239.438 14.7812 241.781 14.4062 244.406 13.9062C244.969 14.4688 245.5 14.75 246 14.75C246.25 14.1875 246.531 14.0312 246.844 14.2812C247.219 14.4688 247.375 14.2812 247.312 13.7188C247.938 14.7812 248.719 15.6875 249.656 16.4375C250.656 17.125 251.75 17.7188 252.938 18.2188ZM264.844 61.25C264.156 63.75 263.531 65.6562 262.969 66.9688C262.469 68.2188 261.688 69.5312 260.625 70.9062C259.812 70.7812 259.25 70.875 258.938 71.1875C258.625 71.5 258.281 71.7812 257.906 72.0312C257.344 72.1562 256.938 72.1562 256.688 72.0312C256.438 71.9062 256.219 71.75 256.031 71.5625C255.844 71.4375 255.594 71.2812 255.281 71.0938C255.031 70.9688 254.625 70.9062 254.062 70.9062C253.938 70.4062 253.781 69.9375 253.594 69.5C253.469 69.0625 253.062 68.9062 252.375 69.0312C252.5 68.5312 252.531 68.125 252.469 67.8125C252.406 67.4375 252.312 67.125 252.188 66.875C252.125 66.5625 252.062 66.2812 252 66.0312C251.938 65.7188 251.969 65.3438 252.094 64.9062C251.781 64.9062 251.531 64.6875 251.344 64.25C251.156 63.8125 250.938 63.375 250.688 62.9375C250.875 61.8125 251.062 60.75 251.25 59.75C251.438 58.75 251.656 57.8125 251.906 56.9375C252.219 56.0625 252.469 55.1875 252.656 54.3125C252.844 53.4375 252.75 52.5312 252.375 51.5938C252.625 51.7812 252.812 51.75 252.938 51.5C253.062 51.1875 253.156 50.8125 253.219 50.375C253.281 49.875 253.312 49.4062 253.312 48.9688C253.312 48.4688 253.281 48.0625 253.219 47.75C253.844 46.125 254.344 44.4688 254.719 42.7812C255.156 41.0312 255.531 39.3125 255.844 37.625C256.219 35.9375 256.594 34.2812 256.969 32.6562C257.344 31.0312 257.844 29.5312 258.469 28.1562C259.156 28.0312 259.906 28.125 260.719 28.4375C261.594 28.6875 262.125 29.0312 262.312 29.4688C263.938 28.2188 265.375 26.7188 266.625 24.9688C267.875 23.1562 269.156 21.4062 270.469 19.7188C271.781 18.0312 273.219 16.5312 274.781 15.2188C276.406 13.9062 278.438 13.125 280.875 12.875C282.125 13.8125 283.5 14.7812 285 15.7812C286.562 16.7188 287.844 17.9688 288.844 19.5312C289.344 19.7812 289.75 20.0625 290.062 20.375C290.438 20.625 290.875 20.9062 291.375 21.2188V22.3438C292.125 23.0312 292.719 23.8438 293.156 24.7812C293.656 25.6562 294.094 26.625 294.469 27.6875C294.844 28.6875 295.219 29.7188 295.594 30.7812C295.969 31.7812 296.406 32.75 296.906 33.6875C296.781 34 296.719 34.2812 296.719 34.5312C296.719 34.7188 296.75 34.9375 296.812 35.1875C296.938 35.4375 297.031 35.6875 297.094 35.9375C297.156 36.1875 297.156 36.5312 297.094 36.9688C296.906 39.7188 296 41.9375 294.375 43.625C292.812 45.3125 290.906 46.7188 288.656 47.8438C286.406 48.9062 284 49.8125 281.438 50.5625C278.875 51.3125 276.562 52.125 274.5 53C274.5 53.25 274.594 53.375 274.781 53.375C275.031 53.375 275.125 53.5312 275.062 53.8438C276.562 54.7812 277.75 55.5312 278.625 56.0938C279.5 56.6562 280.312 57.125 281.062 57.5C281.875 57.875 282.719 58.2188 283.594 58.5312C284.531 58.7812 285.812 59.0938 287.438 59.4688C289.062 59.8438 290.312 60.1562 291.188 60.4062C292.125 60.5938 292.969 60.7812 293.719 60.9688C294.469 61.0938 295.219 61.2188 295.969 61.3438C296.781 61.4062 297.906 61.5 299.344 61.625C299.906 62.1875 300.375 62.875 300.75 63.6875C301.188 64.4375 301.469 65.2188 301.594 66.0312C301.719 66.7812 301.75 67.5312 301.688 68.2812C301.625 68.9688 301.406 69.5312 301.031 69.9688C301.094 70.1562 301.219 70.25 301.406 70.25C301.656 70.1875 301.906 70.1875 302.156 70.25C301.781 70.5 301.469 70.8125 301.219 71.1875C300.969 71.5625 300.719 71.9375 300.469 72.3125C300.219 72.6875 299.938 73 299.625 73.25C299.312 73.5625 298.875 73.75 298.312 73.8125C296.375 74.5625 293.938 74.5938 291 73.9062C288.062 73.2812 284.344 72.0938 279.844 70.3438C277.594 69.4688 275.75 68.7188 274.312 68.0938C272.938 67.4062 271.719 66.75 270.656 66.125C269.656 65.4375 268.719 64.7188 267.844 63.9688C267.031 63.2188 266.031 62.3125 264.844 61.25ZM278.25 29.0938C277.562 30.0938 276.781 31 275.906 31.8125C275.094 32.625 274.281 33.4688 273.469 34.3438C272.719 35.1562 272.031 36.0938 271.406 37.1562C270.781 38.1562 270.344 39.3438 270.094 40.7188C272.281 40.4688 274.562 39.875 276.938 38.9375C279.312 37.9375 281.562 37 283.688 36.125C283.438 34.1875 282.75 32.625 281.625 31.4375C280.562 30.25 279.438 29.4688 278.25 29.0938ZM320.906 53.9375C320.344 54.0625 319.938 54.4062 319.688 54.9688C319.438 55.4688 319.188 56 318.938 56.5625C318.75 57.125 318.531 57.6562 318.281 58.1562C318.094 58.5938 317.781 58.8125 317.344 58.8125C317.281 59.3125 317.094 59.75 316.781 60.125C316.531 60.5 316.281 60.9062 316.031 61.3438C315.781 61.7188 315.594 62.1562 315.469 62.6562C315.344 63.0938 315.406 63.625 315.656 64.25C315.156 64.625 314.844 65.1562 314.719 65.8438C314.594 66.5312 314.438 67.1875 314.25 67.8125C314.125 68.4375 313.875 68.9688 313.5 69.4062C313.125 69.8438 312.438 70.0312 311.438 69.9688C311.25 70.2188 311.219 70.375 311.344 70.4375C311.469 70.5 311.562 70.7188 311.625 71.0938C310.938 70.9688 310.406 71 310.031 71.1875C309.719 71.4375 309.312 71.5938 308.812 71.6562C307.625 71.2812 306.625 70.625 305.812 69.6875C305.062 68.75 304.375 67.7188 303.75 66.5938C303.188 65.4062 302.656 64.2188 302.156 63.0312C301.719 61.8438 301.281 60.8125 300.844 59.9375C301.031 59.25 301.062 58.5938 300.938 57.9688C300.812 57.2812 300.594 56.7188 300.281 56.2812C303.344 49.7812 306.688 42.8438 310.312 35.4688C313.938 28.0938 317.375 20.8125 320.625 13.625C322.062 14.1875 323.469 14.8438 324.844 15.5938C326.281 16.2812 327.562 17.0938 328.688 18.0312C329.875 18.9688 330.875 20.0625 331.688 21.3125C332.5 22.5 333.031 23.8438 333.281 25.3438C333.156 25.7188 333 25.875 332.812 25.8125C332.688 25.6875 332.562 25.7188 332.438 25.9062C332.688 26.2188 332.812 26.4375 332.812 26.5625C332.875 26.6875 332.875 26.8125 332.812 26.9375C332.812 27.0625 332.812 27.25 332.812 27.5C332.812 27.6875 332.906 27.9688 333.094 28.3438C332.844 28.2812 332.656 28.3125 332.531 28.4375C332.469 28.5625 332.281 28.5625 331.969 28.4375C332.219 29.125 332.281 29.6875 332.156 30.125C332.094 30.5625 331.969 30.9688 331.781 31.3438C331.594 31.6562 331.438 32.0312 331.312 32.4688C331.188 32.8438 331.219 33.3438 331.406 33.9688C331.219 33.9688 331.062 34.0312 330.938 34.1562C330.875 34.2188 330.812 34.3125 330.75 34.4375C330.688 34.5 330.594 34.5938 330.469 34.7188C330.406 34.7812 330.281 34.7812 330.094 34.7188C330.281 36.0938 330.344 37.4688 330.281 38.8438C330.219 40.2188 330.156 41.625 330.094 43.0625C330.094 44.4375 330.125 45.9062 330.188 47.4688C330.25 48.9688 330.469 50.5312 330.844 52.1562C333.094 50.8438 334.875 49.1562 336.188 47.0938C337.562 45.0312 338.656 42.7188 339.469 40.1562C340.344 37.5938 341 34.8438 341.438 31.9062C341.875 28.9688 342.344 25.9688 342.844 22.9062C343.406 22.3438 343.844 21.6562 344.156 20.8438C344.469 20.0312 344.75 19.1875 345 18.3125C345.25 17.375 345.5 16.4688 345.75 15.5938C346 14.6562 346.312 13.8125 346.688 13.0625C347.625 13.1875 348.406 13.5 349.031 14C349.719 14.4375 350.344 14.9375 350.906 15.5C351.469 16 352.062 16.5 352.688 17C353.312 17.4375 354.094 17.7188 355.031 17.8438C355.781 18.9062 356.469 19.9375 357.094 20.9375C357.719 21.9375 358.125 23 358.312 24.125C358 24.625 357.75 25.1875 357.562 25.8125C357.438 26.4375 357.281 27.0625 357.094 27.6875C356.906 28.3125 356.656 28.9062 356.344 29.4688C356.031 29.9688 355.594 30.4062 355.031 30.7812C354.844 32.4062 354.594 33.9062 354.281 35.2812C354.031 36.5938 353.75 37.9062 353.438 39.2188C353.188 40.5312 352.969 41.9062 352.781 43.3438C352.594 44.7188 352.531 46.25 352.594 47.9375C352.094 49.375 351.562 50.9062 351 52.5312C350.438 54.1562 350 55.625 349.688 56.9375C348.688 57.75 347.906 58.7188 347.344 59.8438C346.781 60.9688 346.188 62.0938 345.562 63.2188C345.312 63.4688 345.156 63.5312 345.094 63.4062C345.031 63.2812 344.812 63.1875 344.438 63.125C344.5 63.375 344.5 63.5625 344.438 63.6875C344.375 63.8125 344.281 63.9375 344.156 64.0625C344.094 64.125 344.031 64.25 343.969 64.4375C343.969 64.625 344.031 64.875 344.156 65.1875C343.281 65.5625 342.5 66.0938 341.812 66.7812C341.125 67.4688 340.375 68.0938 339.562 68.6562C338.812 69.2188 337.875 69.5938 336.75 69.7812C335.688 69.9688 334.281 69.75 332.531 69.125C329.969 67.25 327.688 65.0938 325.688 62.6562C323.75 60.2188 322.156 57.3125 320.906 53.9375ZM364.312 72.3125C363.688 72.3125 362.719 72.2188 361.406 72.0312C360.406 70.9688 359.5 69.5312 358.688 67.7188C357.938 65.8438 357.344 63.875 356.906 61.8125C356.531 59.6875 356.344 57.5938 356.344 55.5312C356.406 53.4062 356.781 51.5312 357.469 49.9062C357.469 49.8438 357.75 49.0938 358.312 47.6562C358.938 46.2188 359.719 44.4062 360.656 42.2188C361.594 39.9688 362.656 37.5 363.844 34.8125C365.031 32.0625 366.219 29.375 367.406 26.75C368.594 24.125 369.719 21.75 370.781 19.625C371.906 17.4375 372.875 15.75 373.688 14.5625C374.25 13.6875 374.75 12.8438 375.188 12.0312C375.688 11.2188 376.156 10.4688 376.594 9.78125C377.281 8.65625 377.906 7.625 378.469 6.6875C379.094 5.6875 379.75 4.8125 380.438 4.0625C381.188 3.25 382 2.5625 382.875 2C383.75 1.375 384.812 0.84375 386.062 0.40625C386.812 0.71875 387.469 1.0625 388.031 1.4375C388.594 1.75 389.094 2.15625 389.531 2.65625L389.812 3.96875C389.938 4.40625 390.125 4.71875 390.375 4.90625C390.688 5.03125 390.938 5.09375 391.125 5.09375C391.938 5.28125 392.625 5.5 393.188 5.75C393.812 5.9375 394.469 6.0625 395.156 6.125C395.406 6.5 395.625 6.875 395.812 7.25C396.062 7.625 396.312 7.96875 396.562 8.28125C397.812 10.0938 398.844 11.8438 399.656 13.5312C400.469 15.2188 400.469 17.0625 399.656 19.0625L399.75 20.0938C400.062 20.5312 400.219 20.9375 400.219 21.3125C400.219 21.6875 400.156 22.2188 400.031 22.9062C399.969 23.4062 399.906 23.9688 399.844 24.5938C399.844 25.1562 399.938 25.7812 400.125 26.4688L400.781 27.2188C401.781 27.7188 402.75 27.9688 403.688 27.9688C404.938 27.9688 406.062 27.6875 407.062 27.125C408.062 26.5625 409 26 409.875 25.4375C410.562 24.9375 411.188 24.5312 411.75 24.2188C412.375 23.9062 412.969 23.6875 413.531 23.5625C414.844 22.3125 416.031 21.2188 417.094 20.2812C418.219 19.2812 419.375 18.2812 420.562 17.2812C422.812 15.4688 425 13.5312 427.125 11.4688C429.25 9.34375 430.938 6.71875 432.188 3.59375C432.875 3.15625 433.656 2.9375 434.531 2.9375C435.406 2.9375 436.281 3.125 437.156 3.5C438.031 3.8125 438.906 4.1875 439.781 4.625C439.969 4.75 440.125 4.84375 440.25 4.90625C440.438 4.96875 440.625 5.0625 440.812 5.1875C440.812 5.875 441.094 6.5 441.656 7.0625C441.969 7.3125 442.188 7.46875 442.312 7.53125C442.438 7.59375 442.562 7.65625 442.688 7.71875C443.188 8.03125 443.594 8.3125 443.906 8.5625C444.281 8.8125 444.562 9.15625 444.75 9.59375C445.312 11.2812 446.25 12.5938 447.562 13.5312C447.438 14.2188 447.469 14.9062 447.656 15.5938C447.844 16.2188 448.062 16.8438 448.312 17.4688C448.438 17.7188 448.531 17.9688 448.594 18.2188C448.656 18.4062 448.75 18.6562 448.875 18.9688L446.812 18.7812L447.094 20.8438C447.281 21.9062 447.188 23.0938 446.812 24.4062C446.5 25.7188 446.125 26.75 445.688 27.5C445.812 29.375 445.875 30.875 445.875 32C445.875 33.0625 445.812 34.0625 445.688 35C445.562 35.9375 445.344 36.8438 445.031 37.7188C444.781 38.5312 444.438 39.4062 444 40.3438C444.25 45.0938 443.688 49.4375 442.312 53.375C441 57.3125 439.562 61 438 64.4375C437.812 64.875 437.625 65.2812 437.438 65.6562C437.25 66.0312 437.094 66.4062 436.969 66.7812C436.281 66.9688 435.656 67.1875 435.094 67.4375C434.531 67.6875 434 67.9688 433.5 68.2812C432.812 68.7188 432.125 69.0938 431.438 69.4062C430.75 69.6562 430.031 69.7812 429.281 69.7812C426.281 67.5938 424.719 63.8125 424.594 58.4375C424.531 53.0625 425.688 46.2188 428.062 37.9062C428.5 37.5938 428.688 37.125 428.625 36.5V35.4688L427.688 35.375C427.375 35.375 427.094 35.4062 426.844 35.4688C426.594 35.5312 426.406 35.8125 426.281 36.3125C424.281 37.75 422.094 39.25 419.719 40.8125C417.406 42.3125 415 43.7188 412.5 45.0312C410 46.2812 407.438 47.3438 404.812 48.2188C402.25 49.0312 399.75 49.4375 397.312 49.4375C391.062 49.4375 386.344 46.25 383.156 39.875L382.312 38.1875L381.375 39.6875C381.188 40 380.844 40.625 380.344 41.5625C379.906 42.4375 379.438 43.4688 378.938 44.6562C378.5 45.8438 378.094 47.0625 377.719 48.3125C377.406 49.5625 377.312 50.6562 377.438 51.5938C376.688 52.2812 375.938 53.0625 375.188 53.9375C374.5 54.8125 374 55.8125 373.688 56.9375C373.562 57.25 373.531 57.5625 373.594 57.875C373.656 58.125 373.75 58.4062 373.875 58.7188C373.812 59.1562 373.688 59.4688 373.5 59.6562C373.312 59.8438 373.094 60.0312 372.844 60.2188C372.531 60.5312 372.219 60.875 371.906 61.25C371.594 61.5625 371.312 61.9375 371.062 62.375C370.938 62.75 370.844 63.1562 370.781 63.5938C370.719 63.9688 370.656 64.3125 370.594 64.625C370.594 65.3125 370.5 65.7812 370.312 66.0312C369.688 67.3438 369.125 68.4375 368.625 69.3125C368.188 70.125 367.75 70.75 367.312 71.1875C366.875 71.625 366.406 71.9062 365.906 72.0312C365.469 72.2188 364.938 72.3125 364.312 72.3125ZM504 42.875C503.938 43.625 504 44.3438 504.188 45.0312C504.375 45.7188 504.594 46.4062 504.844 47.0938C505.156 47.7188 505.438 48.375 505.688 49.0625C505.938 49.75 506.125 50.4375 506.25 51.125C506.375 52 506.375 52.9688 506.25 54.0312C506.125 55.0312 505.906 56.0312 505.594 57.0312C505.281 57.9688 504.875 58.8438 504.375 59.6562C503.875 60.4062 503.281 60.9688 502.594 61.3438C501.719 62.4688 500.656 63.3438 499.406 63.9688C498.156 64.5938 497 65.3438 495.938 66.2188C495.25 66.6562 494.469 66.9688 493.594 67.1562C492.781 67.3438 491.938 67.5312 491.062 67.7188C490.375 68.0938 489.562 68.5 488.625 68.9375C487.688 69.3125 486.719 69.6875 485.719 70.0625C484.719 70.375 483.719 70.625 482.719 70.8125C481.719 70.9375 480.844 70.9688 480.094 70.9062C478.219 71.5938 476.375 72.0312 474.562 72.2188C472.812 72.4688 470.75 72.3438 468.375 71.8438C466.125 72.1562 464.031 72.0625 462.094 71.5625C460.219 71.0625 458.531 70.2812 457.031 69.2188C455.594 68.0938 454.312 66.7812 453.188 65.2812C452.125 63.7188 451.25 62.0938 450.562 60.4062C450.062 56.8438 450.188 53.625 450.938 50.75C451.688 47.8125 452.75 45.125 454.125 42.6875C455.562 40.1875 457.188 37.9062 459 35.8438C460.812 33.7188 462.562 31.6562 464.25 29.6562C464.625 29.7812 464.906 29.7812 465.094 29.6562C465.344 29.4688 465.562 29.25 465.75 29C465.938 28.6875 466.125 28.4062 466.312 28.1562C466.562 27.9062 466.844 27.75 467.156 27.6875C467.594 26.75 468.219 26.0625 469.031 25.625C469.906 25.125 470.594 24.4375 471.094 23.5625C471.656 23.4375 472.125 23.25 472.5 23C472.875 22.75 473.219 22.4688 473.531 22.1562C473.906 21.8438 474.281 21.5625 474.656 21.3125C475.031 21 475.469 20.7812 475.969 20.6562V19.625C477.094 19.125 477.906 18.5625 478.406 17.9375C478.969 17.25 479.625 16.4375 480.375 15.5C480.938 15.4375 481.375 15.4062 481.688 15.4062C482.062 15.4062 482.594 15.3438 483.281 15.2188C483.781 14.3438 484.219 13.6875 484.594 13.25C485.031 12.8125 485.656 12.3438 486.469 11.8438C487.219 12.2188 488.031 12.4688 488.906 12.5938C489.844 12.7188 490.656 13.125 491.344 13.8125C491.406 14.4375 491.594 14.9375 491.906 15.3125C492.219 15.625 492.562 15.9375 492.938 16.25C493.312 16.5 493.656 16.7812 493.969 17.0938C494.344 17.4062 494.594 17.8438 494.719 18.4062C494.969 18.4688 495.125 18.4375 495.188 18.3125C495.312 18.1875 495.5 18.1562 495.75 18.2188C495.938 19.0938 496.156 19.6875 496.406 20C496.656 20.25 496.906 20.7812 497.156 21.5938C496.844 22.2188 496.594 22.875 496.406 23.5625C496.281 24.1875 495.906 24.6562 495.281 24.9688C495.219 25.4062 495.344 25.6562 495.656 25.7188C495.969 25.7188 496.156 25.875 496.219 26.1875C496.281 26.75 496.188 27.1562 495.938 27.4062C497.438 29.8438 498.781 32.4375 499.969 35.1875C501.156 37.875 502.5 40.4375 504 42.875ZM492.281 51.7812C492.531 51.0938 492.844 50.5312 493.219 50.0938C493.656 49.6562 493.906 49 493.969 48.125C493.656 47.625 493.469 47.25 493.406 47C493.344 46.6875 493.312 46.2188 493.312 45.5938C491.938 43.6562 490.75 41.5938 489.75 39.4062C488.75 37.1562 487.625 35.0625 486.375 33.125C486.25 33.375 486.031 33.625 485.719 33.875C485.406 34.125 485.062 34.0625 484.688 33.6875C484.562 34.1875 484.344 34.5625 484.031 34.8125C483.719 35 483.375 35.0938 483 35.0938C482.625 35.0312 482.219 34.9375 481.781 34.8125C481.406 34.625 481.062 34.4062 480.75 34.1562C478.938 35.5938 477.125 37 475.312 38.375C473.5 39.75 471.875 41.3438 470.438 43.1562C470.188 43.2812 470.031 43.3438 469.969 43.3438C469.906 43.2812 469.719 43.3125 469.406 43.4375C468.906 44.625 468.281 45.7188 467.531 46.7188C466.844 47.6562 466.156 48.625 465.469 49.625C464.781 50.625 464.188 51.6875 463.688 52.8125C463.188 53.9375 462.906 55.25 462.844 56.75C463.906 57.625 465.156 58.1562 466.594 58.3438C468.031 58.5312 469.5 58.5625 471 58.4375C472.562 58.3125 474.062 58.125 475.5 57.875C477 57.5625 478.375 57.4062 479.625 57.4062C482.25 56.7812 484.5 55.9688 486.375 54.9688C488.25 53.9062 490.219 52.8438 492.281 51.7812ZM558.281 25.9062C556.719 25.9062 555.031 26.0312 553.219 26.2812C551.406 26.4688 549.625 26.6875 547.875 26.9375C546.625 27.125 545.406 27.2812 544.219 27.4062C543.094 27.5312 542.062 27.625 541.125 27.6875C540.688 29.0625 540.25 30.2812 539.812 31.3438C539.375 32.4062 538.906 33.4375 538.406 34.4375C537.906 35.5 537.438 36.5938 537 37.7188C536.625 38.7812 536.25 39.9375 535.875 41.1875C535.25 42.1875 534.719 43.125 534.281 44C533.906 44.8125 533.594 45.75 533.344 46.8125C532.594 47.75 532.031 48.75 531.656 49.8125C531.281 50.8125 531 51.6875 530.812 52.4375L530.438 53.5625C530.062 53.9375 529.844 54.25 529.781 54.5C529.719 54.6875 529.562 54.875 529.312 55.0625C529.25 55.75 529.031 56.4375 528.656 57.125C528.531 57.4375 528.438 57.75 528.375 58.0625C528.312 58.3125 528.281 58.5 528.281 58.625C528.281 59.25 528.125 59.6562 527.812 59.8438C527.875 60.1562 527.875 60.5 527.812 60.875C527.75 61.1875 527.688 61.5 527.625 61.8125C527.438 62.5625 527.375 63.1562 527.438 63.5938C527.625 63.8438 527.781 64.0625 527.906 64.25C528.094 64.4375 528.219 64.6875 528.281 65C528.656 65.25 528.938 65.4062 529.125 65.4688C529.375 65.6562 529.75 65.875 530.25 66.125L531.094 67.0625C531.406 68.875 531.125 70.3125 530.25 71.375C529.312 72.5625 527.719 73.1562 525.469 73.1562H524.344C524.031 72.8438 523.844 72.5938 523.781 72.4062C523.281 72.2188 522.875 72.0625 522.562 71.9375C522.25 71.8125 521.969 71.5625 521.719 71.1875C520.906 70.8125 520.25 70.5 519.75 70.25L518.906 69.7812C518.906 69.0938 518.906 68.7188 518.906 68.6562C518.469 68.0938 518.125 67.4688 517.875 66.7812C517.688 66.0938 517.531 65.4062 517.406 64.7188C517.281 64.1562 517.125 63.625 516.938 63.125C516.812 62.625 516.625 62.1875 516.375 61.8125C516.25 58.1875 516.594 55.125 517.406 52.625C518.219 50.125 519.062 47.7188 519.938 45.4062C520.438 44.1562 520.938 42.9062 521.438 41.6562C521.938 40.3438 522.375 39 522.75 37.625L523.594 36.6875C524.031 35.6875 524.375 34.875 524.625 34.25C524.938 33.5625 525.25 32.875 525.562 32.1875C525.75 31.75 525.906 31.3438 526.031 30.9688C526.219 30.5312 526.375 30.1562 526.5 29.8438C526.125 29.8438 525.781 29.875 525.469 29.9375C525.156 29.9375 524.844 29.9688 524.531 30.0312C524.156 30.0938 523.812 30.1562 523.5 30.2188C523.188 30.2188 522.875 30.2188 522.562 30.2188C522.125 30.2188 521.812 30.1875 521.625 30.125C520.938 30.4375 520.188 30.5938 519.375 30.5938H518.438C518.25 30.5938 518.062 30.5938 517.875 30.5938C517.75 30.5312 517.625 30.5 517.5 30.5C516.875 30.5 516.375 30.5938 516 30.7812C515.25 30.7812 514.531 30.7812 513.844 30.7812H512.906C512.781 30.7812 512.625 30.8125 512.438 30.875C512.25 30.875 512.094 30.875 511.969 30.875C511.531 30.875 511.062 30.8438 510.562 30.7812C510.062 30.6562 509.531 30.4375 508.969 30.125C508.219 29.125 507.719 28.5938 507.469 28.5312L506.625 27.4062C506.562 27.0312 506.469 26.6875 506.344 26.375C506.219 26 506.094 25.5938 505.969 25.1562C505.719 24.5312 505.469 23.875 505.219 23.1875C505.031 22.4375 504.938 21.5625 504.938 20.5625C505 20.0625 505.125 19.6875 505.312 19.4375C505.5 19.1875 505.656 18.9688 505.781 18.7812L506.062 17.375L507.281 17.4688H509.906C511.906 17.4688 513.938 17.4062 516 17.2812C518.062 17.0938 520.188 16.9062 522.375 16.7188C523.625 16.5938 524.875 16.4688 526.125 16.3438C527.438 16.2188 528.781 16.0938 530.156 15.9688C530.406 15.4062 530.656 14.875 530.906 14.375L531.844 13.9062C532.969 13.8438 533.75 14 534.188 14.375C534.688 14.6875 535.094 15 535.406 15.3125C536.781 15.1875 538.156 15.0625 539.531 14.9375C540.969 14.75 542.406 14.5312 543.844 14.2812C545.969 13.9688 548.094 13.6875 550.219 13.4375C552.406 13.1875 554.5 13.0625 556.5 13.0625C557.375 13.0625 558.219 13.0938 559.031 13.1562C559.844 13.2188 560.594 13.3125 561.281 13.4375L562.219 14.0938C562.406 14.4688 562.656 14.8125 562.969 15.125C563.344 15.4375 563.719 15.75 564.094 16.0625C564.844 16.75 565.594 17.5625 566.344 18.5C567.094 19.4375 567.375 20.8125 567.188 22.625C566.688 23.375 566.312 23.8125 566.062 23.9375L565.219 25.0625L564.281 24.9688C563.906 24.9688 563.562 25.0312 563.25 25.1562C562.938 25.2188 562.625 25.3125 562.312 25.4375C562.062 25.5625 561.812 25.6875 561.562 25.8125C561.312 25.875 561.031 25.9375 560.719 26C560.156 26 559.688 26 559.312 26C559 25.9375 558.656 25.9062 558.281 25.9062ZM602.719 42.875C602.656 43.625 602.719 44.3438 602.906 45.0312C603.094 45.7188 603.312 46.4062 603.562 47.0938C603.875 47.7188 604.156 48.375 604.406 49.0625C604.656 49.75 604.844 50.4375 604.969 51.125C605.094 52 605.094 52.9688 604.969 54.0312C604.844 55.0312 604.625 56.0312 604.312 57.0312C604 57.9688 603.594 58.8438 603.094 59.6562C602.594 60.4062 602 60.9688 601.312 61.3438C600.438 62.4688 599.375 63.3438 598.125 63.9688C596.875 64.5938 595.719 65.3438 594.656 66.2188C593.969 66.6562 593.188 66.9688 592.312 67.1562C591.5 67.3438 590.656 67.5312 589.781 67.7188C589.094 68.0938 588.281 68.5 587.344 68.9375C586.406 69.3125 585.438 69.6875 584.438 70.0625C583.438 70.375 582.438 70.625 581.438 70.8125C580.438 70.9375 579.562 70.9688 578.812 70.9062C576.938 71.5938 575.094 72.0312 573.281 72.2188C571.531 72.4688 569.469 72.3438 567.094 71.8438C564.844 72.1562 562.75 72.0625 560.812 71.5625C558.938 71.0625 557.25 70.2812 555.75 69.2188C554.312 68.0938 553.031 66.7812 551.906 65.2812C550.844 63.7188 549.969 62.0938 549.281 60.4062C548.781 56.8438 548.906 53.625 549.656 50.75C550.406 47.8125 551.469 45.125 552.844 42.6875C554.281 40.1875 555.906 37.9062 557.719 35.8438C559.531 33.7188 561.281 31.6562 562.969 29.6562C563.344 29.7812 563.625 29.7812 563.812 29.6562C564.062 29.4688 564.281 29.25 564.469 29C564.656 28.6875 564.844 28.4062 565.031 28.1562C565.281 27.9062 565.562 27.75 565.875 27.6875C566.312 26.75 566.938 26.0625 567.75 25.625C568.625 25.125 569.312 24.4375 569.812 23.5625C570.375 23.4375 570.844 23.25 571.219 23C571.594 22.75 571.938 22.4688 572.25 22.1562C572.625 21.8438 573 21.5625 573.375 21.3125C573.75 21 574.188 20.7812 574.688 20.6562V19.625C575.812 19.125 576.625 18.5625 577.125 17.9375C577.688 17.25 578.344 16.4375 579.094 15.5C579.656 15.4375 580.094 15.4062 580.406 15.4062C580.781 15.4062 581.312 15.3438 582 15.2188C582.5 14.3438 582.938 13.6875 583.312 13.25C583.75 12.8125 584.375 12.3438 585.188 11.8438C585.938 12.2188 586.75 12.4688 587.625 12.5938C588.562 12.7188 589.375 13.125 590.062 13.8125C590.125 14.4375 590.312 14.9375 590.625 15.3125C590.938 15.625 591.281 15.9375 591.656 16.25C592.031 16.5 592.375 16.7812 592.688 17.0938C593.062 17.4062 593.312 17.8438 593.438 18.4062C593.688 18.4688 593.844 18.4375 593.906 18.3125C594.031 18.1875 594.219 18.1562 594.469 18.2188C594.656 19.0938 594.875 19.6875 595.125 20C595.375 20.25 595.625 20.7812 595.875 21.5938C595.562 22.2188 595.312 22.875 595.125 23.5625C595 24.1875 594.625 24.6562 594 24.9688C593.938 25.4062 594.062 25.6562 594.375 25.7188C594.688 25.7188 594.875 25.875 594.938 26.1875C595 26.75 594.906 27.1562 594.656 27.4062C596.156 29.8438 597.5 32.4375 598.688 35.1875C599.875 37.875 601.219 40.4375 602.719 42.875ZM591 51.7812C591.25 51.0938 591.562 50.5312 591.938 50.0938C592.375 49.6562 592.625 49 592.688 48.125C592.375 47.625 592.188 47.25 592.125 47C592.062 46.6875 592.031 46.2188 592.031 45.5938C590.656 43.6562 589.469 41.5938 588.469 39.4062C587.469 37.1562 586.344 35.0625 585.094 33.125C584.969 33.375 584.75 33.625 584.438 33.875C584.125 34.125 583.781 34.0625 583.406 33.6875C583.281 34.1875 583.062 34.5625 582.75 34.8125C582.438 35 582.094 35.0938 581.719 35.0938C581.344 35.0312 580.938 34.9375 580.5 34.8125C580.125 34.625 579.781 34.4062 579.469 34.1562C577.656 35.5938 575.844 37 574.031 38.375C572.219 39.75 570.594 41.3438 569.156 43.1562C568.906 43.2812 568.75 43.3438 568.688 43.3438C568.625 43.2812 568.438 43.3125 568.125 43.4375C567.625 44.625 567 45.7188 566.25 46.7188C565.562 47.6562 564.875 48.625 564.188 49.625C563.5 50.625 562.906 51.6875 562.406 52.8125C561.906 53.9375 561.625 55.25 561.562 56.75C562.625 57.625 563.875 58.1562 565.312 58.3438C566.75 58.5312 568.219 58.5625 569.719 58.4375C571.281 58.3125 572.781 58.125 574.219 57.875C575.719 57.5625 577.094 57.4062 578.344 57.4062C580.969 56.7812 583.219 55.9688 585.094 54.9688C586.969 53.9062 588.938 52.8438 591 51.7812Z"/>
</mask>
<path class="path" d="M8.4375 72.3125C7.8125 72.3125 6.84375 72.2188 5.53125 72.0312C4.53125 70.9688 3.625 69.5312 2.8125 67.7188C2.0625 65.8438 1.46875 63.875 1.03125 61.8125C0.65625 59.6875 0.46875 57.5938 0.46875 55.5312C0.53125 53.4062 0.90625 51.5312 1.59375 49.9062C1.59375 49.8438 1.875 49.0938 2.4375 47.6562C3.0625 46.2188 3.84375 44.4062 4.78125 42.2188C5.71875 39.9688 6.78125 37.5 7.96875 34.8125C9.15625 32.0625 10.3438 29.375 11.5312 26.75C12.7188 24.125 13.8438 21.75 14.9062 19.625C16.0312 17.4375 17 15.75 17.8125 14.5625C18.375 13.6875 18.875 12.8438 19.3125 12.0312C19.8125 11.2188 20.2812 10.4688 20.7188 9.78125C21.4062 8.65625 22.0312 7.625 22.5938 6.6875C23.2188 5.6875 23.875 4.8125 24.5625 4.0625C25.3125 3.25 26.125 2.5625 27 2C27.875 1.375 28.9375 0.84375 30.1875 0.40625C30.9375 0.71875 31.5938 1.0625 32.1562 1.4375C32.7188 1.75 33.2188 2.15625 33.6562 2.65625L33.9375 3.96875C34.0625 4.40625 34.25 4.71875 34.5 4.90625C34.8125 5.03125 35.0625 5.09375 35.25 5.09375C36.0625 5.28125 36.75 5.5 37.3125 5.75C37.9375 5.9375 38.5938 6.0625 39.2812 6.125C39.5312 6.5 39.75 6.875 39.9375 7.25C40.1875 7.625 40.4375 7.96875 40.6875 8.28125C41.9375 10.0938 42.9688 11.8438 43.7812 13.5312C44.5938 15.2188 44.5938 17.0625 43.7812 19.0625L43.875 20.0938C44.1875 20.5312 44.3438 20.9375 44.3438 21.3125C44.3438 21.6875 44.2812 22.2188 44.1562 22.9062C44.0938 23.4062 44.0312 23.9688 43.9688 24.5938C43.9688 25.1562 44.0625 25.7812 44.25 26.4688L44.9062 27.2188C45.9062 27.7188 46.875 27.9688 47.8125 27.9688C49.0625 27.9688 50.1875 27.6875 51.1875 27.125C52.1875 26.5625 53.125 26 54 25.4375C54.6875 24.9375 55.3125 24.5312 55.875 24.2188C56.5 23.9062 57.0938 23.6875 57.6562 23.5625C58.9688 22.3125 60.1562 21.2188 61.2188 20.2812C62.3438 19.2812 63.5 18.2812 64.6875 17.2812C66.9375 15.4688 69.125 13.5312 71.25 11.4688C73.375 9.34375 75.0625 6.71875 76.3125 3.59375C77 3.15625 77.7812 2.9375 78.6562 2.9375C79.5312 2.9375 80.4062 3.125 81.2812 3.5C82.1562 3.8125 83.0312 4.1875 83.9062 4.625C84.0938 4.75 84.25 4.84375 84.375 4.90625C84.5625 4.96875 84.75 5.0625 84.9375 5.1875C84.9375 5.875 85.2188 6.5 85.7812 7.0625C86.0938 7.3125 86.3125 7.46875 86.4375 7.53125C86.5625 7.59375 86.6875 7.65625 86.8125 7.71875C87.3125 8.03125 87.7188 8.3125 88.0312 8.5625C88.4062 8.8125 88.6875 9.15625 88.875 9.59375C89.4375 11.2812 90.375 12.5938 91.6875 13.5312C91.5625 14.2188 91.5938 14.9062 91.7812 15.5938C91.9688 16.2188 92.1875 16.8438 92.4375 17.4688C92.5625 17.7188 92.6562 17.9688 92.7188 18.2188C92.7812 18.4062 92.875 18.6562 93 18.9688L90.9375 18.7812L91.2188 20.8438C91.4062 21.9062 91.3125 23.0938 90.9375 24.4062C90.625 25.7188 90.25 26.75 89.8125 27.5C89.9375 29.375 90 30.875 90 32C90 33.0625 89.9375 34.0625 89.8125 35C89.6875 35.9375 89.4688 36.8438 89.1562 37.7188C88.9062 38.5312 88.5625 39.4062 88.125 40.3438C88.375 45.0938 87.8125 49.4375 86.4375 53.375C85.125 57.3125 83.6875 61 82.125 64.4375C81.9375 64.875 81.75 65.2812 81.5625 65.6562C81.375 66.0312 81.2188 66.4062 81.0938 66.7812C80.4062 66.9688 79.7812 67.1875 79.2188 67.4375C78.6562 67.6875 78.125 67.9688 77.625 68.2812C76.9375 68.7188 76.25 69.0938 75.5625 69.4062C74.875 69.6562 74.1562 69.7812 73.4062 69.7812C70.4062 67.5938 68.8438 63.8125 68.7188 58.4375C68.6562 53.0625 69.8125 46.2188 72.1875 37.9062C72.625 37.5938 72.8125 37.125 72.75 36.5V35.4688L71.8125 35.375C71.5 35.375 71.2188 35.4062 70.9688 35.4688C70.7188 35.5312 70.5312 35.8125 70.4062 36.3125C68.4062 37.75 66.2188 39.25 63.8438 40.8125C61.5312 42.3125 59.125 43.7188 56.625 45.0312C54.125 46.2812 51.5625 47.3438 48.9375 48.2188C46.375 49.0312 43.875 49.4375 41.4375 49.4375C35.1875 49.4375 30.4688 46.25 27.2812 39.875L26.4375 38.1875L25.5 39.6875C25.3125 40 24.9688 40.625 24.4688 41.5625C24.0312 42.4375 23.5625 43.4688 23.0625 44.6562C22.625 45.8438 22.2188 47.0625 21.8438 48.3125C21.5312 49.5625 21.4375 50.6562 21.5625 51.5938C20.8125 52.2812 20.0625 53.0625 19.3125 53.9375C18.625 54.8125 18.125 55.8125 17.8125 56.9375C17.6875 57.25 17.6562 57.5625 17.7188 57.875C17.7812 58.125 17.875 58.4062 18 58.7188C17.9375 59.1562 17.8125 59.4688 17.625 59.6562C17.4375 59.8438 17.2188 60.0312 16.9688 60.2188C16.6562 60.5312 16.3438 60.875 16.0312 61.25C15.7188 61.5625 15.4375 61.9375 15.1875 62.375C15.0625 62.75 14.9688 63.1562 14.9062 63.5938C14.8438 63.9688 14.7812 64.3125 14.7188 64.625C14.7188 65.3125 14.625 65.7812 14.4375 66.0312C13.8125 67.3438 13.25 68.4375 12.75 69.3125C12.3125 70.125 11.875 70.75 11.4375 71.1875C11 71.625 10.5312 71.9062 10.0312 72.0312C9.59375 72.2188 9.0625 72.3125 8.4375 72.3125ZM148.125 42.875C148.062 43.625 148.125 44.3438 148.312 45.0312C148.5 45.7188 148.719 46.4062 148.969 47.0938C149.281 47.7188 149.562 48.375 149.812 49.0625C150.062 49.75 150.25 50.4375 150.375 51.125C150.5 52 150.5 52.9688 150.375 54.0312C150.25 55.0312 150.031 56.0312 149.719 57.0312C149.406 57.9688 149 58.8438 148.5 59.6562C148 60.4062 147.406 60.9688 146.719 61.3438C145.844 62.4688 144.781 63.3438 143.531 63.9688C142.281 64.5938 141.125 65.3438 140.062 66.2188C139.375 66.6562 138.594 66.9688 137.719 67.1562C136.906 67.3438 136.062 67.5312 135.188 67.7188C134.5 68.0938 133.688 68.5 132.75 68.9375C131.812 69.3125 130.844 69.6875 129.844 70.0625C128.844 70.375 127.844 70.625 126.844 70.8125C125.844 70.9375 124.969 70.9688 124.219 70.9062C122.344 71.5938 120.5 72.0312 118.688 72.2188C116.938 72.4688 114.875 72.3438 112.5 71.8438C110.25 72.1562 108.156 72.0625 106.219 71.5625C104.344 71.0625 102.656 70.2812 101.156 69.2188C99.7188 68.0938 98.4375 66.7812 97.3125 65.2812C96.25 63.7188 95.375 62.0938 94.6875 60.4062C94.1875 56.8438 94.3125 53.625 95.0625 50.75C95.8125 47.8125 96.875 45.125 98.25 42.6875C99.6875 40.1875 101.312 37.9062 103.125 35.8438C104.938 33.7188 106.688 31.6562 108.375 29.6562C108.75 29.7812 109.031 29.7812 109.219 29.6562C109.469 29.4688 109.688 29.25 109.875 29C110.062 28.6875 110.25 28.4062 110.438 28.1562C110.688 27.9062 110.969 27.75 111.281 27.6875C111.719 26.75 112.344 26.0625 113.156 25.625C114.031 25.125 114.719 24.4375 115.219 23.5625C115.781 23.4375 116.25 23.25 116.625 23C117 22.75 117.344 22.4688 117.656 22.1562C118.031 21.8438 118.406 21.5625 118.781 21.3125C119.156 21 119.594 20.7812 120.094 20.6562V19.625C121.219 19.125 122.031 18.5625 122.531 17.9375C123.094 17.25 123.75 16.4375 124.5 15.5C125.062 15.4375 125.5 15.4062 125.812 15.4062C126.188 15.4062 126.719 15.3438 127.406 15.2188C127.906 14.3438 128.344 13.6875 128.719 13.25C129.156 12.8125 129.781 12.3438 130.594 11.8438C131.344 12.2188 132.156 12.4688 133.031 12.5938C133.969 12.7188 134.781 13.125 135.469 13.8125C135.531 14.4375 135.719 14.9375 136.031 15.3125C136.344 15.625 136.688 15.9375 137.062 16.25C137.438 16.5 137.781 16.7812 138.094 17.0938C138.469 17.4062 138.719 17.8438 138.844 18.4062C139.094 18.4688 139.25 18.4375 139.312 18.3125C139.438 18.1875 139.625 18.1562 139.875 18.2188C140.062 19.0938 140.281 19.6875 140.531 20C140.781 20.25 141.031 20.7812 141.281 21.5938C140.969 22.2188 140.719 22.875 140.531 23.5625C140.406 24.1875 140.031 24.6562 139.406 24.9688C139.344 25.4062 139.469 25.6562 139.781 25.7188C140.094 25.7188 140.281 25.875 140.344 26.1875C140.406 26.75 140.312 27.1562 140.062 27.4062C141.562 29.8438 142.906 32.4375 144.094 35.1875C145.281 37.875 146.625 40.4375 148.125 42.875ZM136.406 51.7812C136.656 51.0938 136.969 50.5312 137.344 50.0938C137.781 49.6562 138.031 49 138.094 48.125C137.781 47.625 137.594 47.25 137.531 47C137.469 46.6875 137.438 46.2188 137.438 45.5938C136.062 43.6562 134.875 41.5938 133.875 39.4062C132.875 37.1562 131.75 35.0625 130.5 33.125C130.375 33.375 130.156 33.625 129.844 33.875C129.531 34.125 129.188 34.0625 128.812 33.6875C128.688 34.1875 128.469 34.5625 128.156 34.8125C127.844 35 127.5 35.0938 127.125 35.0938C126.75 35.0312 126.344 34.9375 125.906 34.8125C125.531 34.625 125.188 34.4062 124.875 34.1562C123.062 35.5938 121.25 37 119.438 38.375C117.625 39.75 116 41.3438 114.562 43.1562C114.312 43.2812 114.156 43.3438 114.094 43.3438C114.031 43.2812 113.844 43.3125 113.531 43.4375C113.031 44.625 112.406 45.7188 111.656 46.7188C110.969 47.6562 110.281 48.625 109.594 49.625C108.906 50.625 108.312 51.6875 107.812 52.8125C107.312 53.9375 107.031 55.25 106.969 56.75C108.031 57.625 109.281 58.1562 110.719 58.3438C112.156 58.5312 113.625 58.5625 115.125 58.4375C116.688 58.3125 118.188 58.125 119.625 57.875C121.125 57.5625 122.5 57.4062 123.75 57.4062C126.375 56.7812 128.625 55.9688 130.5 54.9688C132.375 53.9062 134.344 52.8438 136.406 51.7812ZM200.062 45.6875C200 46 199.938 46.2812 199.875 46.5312C199.812 46.7188 199.75 46.9062 199.688 47.0938C199.625 47.2812 199.594 47.5312 199.594 47.8438C199.594 48.0938 199.594 48.4375 199.594 48.875C197.719 52.1875 195.344 54.9688 192.469 57.2188C189.656 59.4688 186.531 61.4688 183.094 63.2188C179.719 64.9062 176.188 66.4688 172.5 67.9062C168.812 69.2812 165.219 70.7812 161.719 72.4062C160.219 72.0312 159.062 71.4062 158.25 70.5312C157.5 69.6562 156.906 68.6562 156.469 67.5312C156.094 66.3438 155.812 65.0625 155.625 63.6875C155.5 62.25 155.375 60.7812 155.25 59.2812C155.438 58.5938 155.688 58.0312 156 57.5938C156.375 57.0938 156.562 56.4062 156.562 55.5312C157.062 53.9062 157.562 52.3125 158.062 50.75C158.562 49.1875 158.875 47.5938 159 45.9688C159.188 45.4688 159.531 45.125 160.031 44.9375C160.344 41.9375 160.344 38.9062 160.031 35.8438C159.781 32.7188 159.281 29.8125 158.531 27.125C158.594 26.5 158.656 26.0625 158.719 25.8125C158.844 25.5 158.844 25.2812 158.719 25.1562C158.656 24.6562 158.812 24.4062 159.188 24.4062C159.625 24.4062 160.062 24.4062 160.5 24.4062C160.5 23.4688 160.312 22.5312 159.938 21.5938C159.625 20.6562 159.312 19.5938 159 18.4062C159.438 17.4688 159.719 16.5625 159.844 15.6875C159.969 14.75 160.25 13.9375 160.688 13.25C164.062 14.3125 167.281 15.5938 170.344 17.0938C173.469 18.5938 176.531 19.6875 179.531 20.375C181.781 22 184.094 23.625 186.469 25.25C188.844 26.8125 191 28.5625 192.938 30.5C194.875 32.375 196.5 34.5312 197.812 36.9688C199.125 39.4062 199.875 42.3125 200.062 45.6875ZM177.844 50.8438C179.156 50.3438 180.438 49.8125 181.688 49.25C183 48.6875 184.188 48.0625 185.25 47.375C186.375 46.625 187.375 45.7812 188.25 44.8438C189.125 43.9062 189.844 42.7812 190.406 41.4688C190.031 40.7188 189.531 40.0625 188.906 39.5C188.281 38.875 187.656 38.3125 187.031 37.8125C186.406 37.25 185.781 36.6875 185.156 36.125C184.594 35.5625 184.125 34.875 183.75 34.0625C182.938 33.9375 182.219 33.7188 181.594 33.4062C180.969 33.0312 180.344 32.6875 179.719 32.375C179.156 32 178.531 31.6562 177.844 31.3438C177.219 31.0312 176.469 30.8438 175.594 30.7812C174.219 30.0938 172.969 29.5938 171.844 29.2812C170.781 28.9688 169.969 28.5625 169.406 28.0625C168.969 28.0625 168.625 28.1562 168.375 28.3438C169 30.7188 169.469 32.9688 169.781 35.0938C170.094 37.1562 170.25 39.25 170.25 41.375C170.312 43.4375 170.219 45.5625 169.969 47.75C169.719 49.9375 169.375 52.3125 168.938 54.875C169.562 54.8125 170.125 54.6875 170.625 54.5C171.188 54.25 171.719 54 172.219 53.75C172.781 53.5 173.344 53.2812 173.906 53.0938C174.531 52.8438 175.25 52.6875 176.062 52.625C176.25 52.25 176.5 51.9375 176.812 51.6875C177.188 51.4375 177.531 51.1562 177.844 50.8438ZM252.938 18.2188C253 18.6562 253 19 252.938 19.25C252.938 19.4375 252.906 19.625 252.844 19.8125C252.844 20 252.844 20.2188 252.844 20.4688C252.844 20.6562 252.906 20.9688 253.031 21.4062C251.719 23.5312 250.188 25 248.438 25.8125C246.75 26.5625 244.906 27.125 242.906 27.5C240.906 27.8125 238.844 28.1562 236.719 28.5312C234.656 28.9062 232.594 29.7188 230.531 30.9688C229.719 30.6562 228.969 30.6562 228.281 30.9688C227.656 31.2812 226.719 31.375 225.469 31.25C225.094 31.625 224.625 31.9062 224.062 32.0938C223.5 32.2188 222.938 32.375 222.375 32.5625C222.625 33.125 222.719 33.7188 222.656 34.3438C222.656 34.9062 222.75 35.375 222.938 35.75C225.125 35.9375 227.531 35.9062 230.156 35.6562C232.844 35.4062 235.469 35.25 238.031 35.1875C238.094 35.5 238.062 35.7188 237.938 35.8438C237.812 35.9062 237.781 36.0625 237.844 36.3125C238.281 36.625 238.719 37.0312 239.156 37.5312C239.594 37.9688 240.031 38.4062 240.469 38.8438C240.906 39.2812 241.344 39.6562 241.781 39.9688C242.281 40.2188 242.844 40.3125 243.469 40.25C243.719 40.75 243.875 41.3125 243.938 41.9375C244.062 42.5 244 43.0938 243.75 43.7188C242.75 44.4062 241.75 45.125 240.75 45.875C239.75 46.5625 238.688 47.1875 237.562 47.75C236.5 48.3125 235.344 48.7812 234.094 49.1562C232.906 49.4688 231.562 49.5938 230.062 49.5312C229.75 49.5312 229.5 49.5312 229.312 49.5312C229.188 49.5312 229 49.4375 228.75 49.25C228.25 49.5625 227.531 49.6562 226.594 49.5312C225.719 49.4062 225.031 49.5 224.531 49.8125C223.844 49.5 223 49.375 222 49.4375C221.062 49.4375 220.219 49.3125 219.469 49.0625C218.469 50.375 217.562 51.7812 216.75 53.2812C215.938 54.7812 215.219 56.375 214.594 58.0625C216.719 58.375 218.469 58.5 219.844 58.4375C221.281 58.375 222.625 58.2812 223.875 58.1562C225.125 57.9688 226.406 57.8125 227.719 57.6875C229.031 57.5 230.688 57.4375 232.688 57.5C233.938 56.8125 235.406 56.375 237.094 56.1875C238.844 55.9375 240.438 55.5625 241.875 55.0625C242.375 55.25 242.812 55.5938 243.188 56.0938C243.562 56.5312 243.906 56.9688 244.219 57.4062C244.594 57.7812 244.969 58.125 245.344 58.4375C245.719 58.75 246.188 58.875 246.75 58.8125C247 59.0625 247.156 59.375 247.219 59.75C247.344 60.0625 247.438 60.375 247.5 60.6875C247.562 61 247.656 61.2812 247.781 61.5312C247.969 61.7188 248.25 61.7812 248.625 61.7188C247.688 63.7812 246.594 65.375 245.344 66.5C244.156 67.5625 242.781 68.375 241.219 68.9375C239.656 69.5 237.906 69.9375 235.969 70.25C234.094 70.5625 232 70.9375 229.688 71.375C229.125 71.5 228.656 71.4688 228.281 71.2812C227.906 71.1562 227.469 71.0938 226.969 71.0938C225.531 71.4062 223.812 71.6875 221.812 71.9375C219.812 72.1875 217.781 72.2812 215.719 72.2188C213.656 72.1562 211.688 71.875 209.812 71.375C207.938 70.9375 206.406 70.125 205.219 68.9375C204.719 68.5 204.375 68 204.188 67.4375C204.062 66.8125 203.656 66.3438 202.969 66.0312C202.906 65.2188 202.781 64.3125 202.594 63.3125C202.406 62.3125 202.219 61.2812 202.031 60.2188C201.844 59.0938 201.688 58 201.562 56.9375C201.5 55.875 201.562 54.9062 201.75 54.0312C201.938 53.0938 202.312 52.25 202.875 51.5C203.5 50.75 203.719 49.9375 203.531 49.0625C203.844 49 204.031 48.8438 204.094 48.5938C204.156 48.2812 204.406 48.1562 204.844 48.2188C205.219 47.0938 205.625 46.0312 206.062 45.0312C206.5 44.0312 206.938 43.0625 207.375 42.125C207.875 41.1875 208.344 40.25 208.781 39.3125C209.281 38.3125 209.75 37.2188 210.188 36.0312C209.312 35.2188 208.656 34.3438 208.219 33.4062C207.844 32.4062 207.562 31.4375 207.375 30.5C207.188 29.5 207.031 28.5 206.906 27.5C206.781 26.4375 206.562 25.375 206.25 24.3125C206.875 23.375 207.625 22.625 208.5 22.0625C209.438 21.4375 210.438 20.9375 211.5 20.5625C212.562 20.1875 213.719 19.875 214.969 19.625C216.219 19.375 217.531 19.0938 218.906 18.7812C221.406 17.9688 223.625 17.3438 225.562 16.9062C227.562 16.4688 229.5 16.125 231.375 15.875C233.312 15.5625 235.312 15.2812 237.375 15.0312C239.438 14.7812 241.781 14.4062 244.406 13.9062C244.969 14.4688 245.5 14.75 246 14.75C246.25 14.1875 246.531 14.0312 246.844 14.2812C247.219 14.4688 247.375 14.2812 247.312 13.7188C247.938 14.7812 248.719 15.6875 249.656 16.4375C250.656 17.125 251.75 17.7188 252.938 18.2188ZM264.844 61.25C264.156 63.75 263.531 65.6562 262.969 66.9688C262.469 68.2188 261.688 69.5312 260.625 70.9062C259.812 70.7812 259.25 70.875 258.938 71.1875C258.625 71.5 258.281 71.7812 257.906 72.0312C257.344 72.1562 256.938 72.1562 256.688 72.0312C256.438 71.9062 256.219 71.75 256.031 71.5625C255.844 71.4375 255.594 71.2812 255.281 71.0938C255.031 70.9688 254.625 70.9062 254.062 70.9062C253.938 70.4062 253.781 69.9375 253.594 69.5C253.469 69.0625 253.062 68.9062 252.375 69.0312C252.5 68.5312 252.531 68.125 252.469 67.8125C252.406 67.4375 252.312 67.125 252.188 66.875C252.125 66.5625 252.062 66.2812 252 66.0312C251.938 65.7188 251.969 65.3438 252.094 64.9062C251.781 64.9062 251.531 64.6875 251.344 64.25C251.156 63.8125 250.938 63.375 250.688 62.9375C250.875 61.8125 251.062 60.75 251.25 59.75C251.438 58.75 251.656 57.8125 251.906 56.9375C252.219 56.0625 252.469 55.1875 252.656 54.3125C252.844 53.4375 252.75 52.5312 252.375 51.5938C252.625 51.7812 252.812 51.75 252.938 51.5C253.062 51.1875 253.156 50.8125 253.219 50.375C253.281 49.875 253.312 49.4062 253.312 48.9688C253.312 48.4688 253.281 48.0625 253.219 47.75C253.844 46.125 254.344 44.4688 254.719 42.7812C255.156 41.0312 255.531 39.3125 255.844 37.625C256.219 35.9375 256.594 34.2812 256.969 32.6562C257.344 31.0312 257.844 29.5312 258.469 28.1562C259.156 28.0312 259.906 28.125 260.719 28.4375C261.594 28.6875 262.125 29.0312 262.312 29.4688C263.938 28.2188 265.375 26.7188 266.625 24.9688C267.875 23.1562 269.156 21.4062 270.469 19.7188C271.781 18.0312 273.219 16.5312 274.781 15.2188C276.406 13.9062 278.438 13.125 280.875 12.875C282.125 13.8125 283.5 14.7812 285 15.7812C286.562 16.7188 287.844 17.9688 288.844 19.5312C289.344 19.7812 289.75 20.0625 290.062 20.375C290.438 20.625 290.875 20.9062 291.375 21.2188V22.3438C292.125 23.0312 292.719 23.8438 293.156 24.7812C293.656 25.6562 294.094 26.625 294.469 27.6875C294.844 28.6875 295.219 29.7188 295.594 30.7812C295.969 31.7812 296.406 32.75 296.906 33.6875C296.781 34 296.719 34.2812 296.719 34.5312C296.719 34.7188 296.75 34.9375 296.812 35.1875C296.938 35.4375 297.031 35.6875 297.094 35.9375C297.156 36.1875 297.156 36.5312 297.094 36.9688C296.906 39.7188 296 41.9375 294.375 43.625C292.812 45.3125 290.906 46.7188 288.656 47.8438C286.406 48.9062 284 49.8125 281.438 50.5625C278.875 51.3125 276.562 52.125 274.5 53C274.5 53.25 274.594 53.375 274.781 53.375C275.031 53.375 275.125 53.5312 275.062 53.8438C276.562 54.7812 277.75 55.5312 278.625 56.0938C279.5 56.6562 280.312 57.125 281.062 57.5C281.875 57.875 282.719 58.2188 283.594 58.5312C284.531 58.7812 285.812 59.0938 287.438 59.4688C289.062 59.8438 290.312 60.1562 291.188 60.4062C292.125 60.5938 292.969 60.7812 293.719 60.9688C294.469 61.0938 295.219 61.2188 295.969 61.3438C296.781 61.4062 297.906 61.5 299.344 61.625C299.906 62.1875 300.375 62.875 300.75 63.6875C301.188 64.4375 301.469 65.2188 301.594 66.0312C301.719 66.7812 301.75 67.5312 301.688 68.2812C301.625 68.9688 301.406 69.5312 301.031 69.9688C301.094 70.1562 301.219 70.25 301.406 70.25C301.656 70.1875 301.906 70.1875 302.156 70.25C301.781 70.5 301.469 70.8125 301.219 71.1875C300.969 71.5625 300.719 71.9375 300.469 72.3125C300.219 72.6875 299.938 73 299.625 73.25C299.312 73.5625 298.875 73.75 298.312 73.8125C296.375 74.5625 293.938 74.5938 291 73.9062C288.062 73.2812 284.344 72.0938 279.844 70.3438C277.594 69.4688 275.75 68.7188 274.312 68.0938C272.938 67.4062 271.719 66.75 270.656 66.125C269.656 65.4375 268.719 64.7188 267.844 63.9688C267.031 63.2188 266.031 62.3125 264.844 61.25ZM278.25 29.0938C277.562 30.0938 276.781 31 275.906 31.8125C275.094 32.625 274.281 33.4688 273.469 34.3438C272.719 35.1562 272.031 36.0938 271.406 37.1562C270.781 38.1562 270.344 39.3438 270.094 40.7188C272.281 40.4688 274.562 39.875 276.938 38.9375C279.312 37.9375 281.562 37 283.688 36.125C283.438 34.1875 282.75 32.625 281.625 31.4375C280.562 30.25 279.438 29.4688 278.25 29.0938ZM320.906 53.9375C320.344 54.0625 319.938 54.4062 319.688 54.9688C319.438 55.4688 319.188 56 318.938 56.5625C318.75 57.125 318.531 57.6562 318.281 58.1562C318.094 58.5938 317.781 58.8125 317.344 58.8125C317.281 59.3125 317.094 59.75 316.781 60.125C316.531 60.5 316.281 60.9062 316.031 61.3438C315.781 61.7188 315.594 62.1562 315.469 62.6562C315.344 63.0938 315.406 63.625 315.656 64.25C315.156 64.625 314.844 65.1562 314.719 65.8438C314.594 66.5312 314.438 67.1875 314.25 67.8125C314.125 68.4375 313.875 68.9688 313.5 69.4062C313.125 69.8438 312.438 70.0312 311.438 69.9688C311.25 70.2188 311.219 70.375 311.344 70.4375C311.469 70.5 311.562 70.7188 311.625 71.0938C310.938 70.9688 310.406 71 310.031 71.1875C309.719 71.4375 309.312 71.5938 308.812 71.6562C307.625 71.2812 306.625 70.625 305.812 69.6875C305.062 68.75 304.375 67.7188 303.75 66.5938C303.188 65.4062 302.656 64.2188 302.156 63.0312C301.719 61.8438 301.281 60.8125 300.844 59.9375C301.031 59.25 301.062 58.5938 300.938 57.9688C300.812 57.2812 300.594 56.7188 300.281 56.2812C303.344 49.7812 306.688 42.8438 310.312 35.4688C313.938 28.0938 317.375 20.8125 320.625 13.625C322.062 14.1875 323.469 14.8438 324.844 15.5938C326.281 16.2812 327.562 17.0938 328.688 18.0312C329.875 18.9688 330.875 20.0625 331.688 21.3125C332.5 22.5 333.031 23.8438 333.281 25.3438C333.156 25.7188 333 25.875 332.812 25.8125C332.688 25.6875 332.562 25.7188 332.438 25.9062C332.688 26.2188 332.812 26.4375 332.812 26.5625C332.875 26.6875 332.875 26.8125 332.812 26.9375C332.812 27.0625 332.812 27.25 332.812 27.5C332.812 27.6875 332.906 27.9688 333.094 28.3438C332.844 28.2812 332.656 28.3125 332.531 28.4375C332.469 28.5625 332.281 28.5625 331.969 28.4375C332.219 29.125 332.281 29.6875 332.156 30.125C332.094 30.5625 331.969 30.9688 331.781 31.3438C331.594 31.6562 331.438 32.0312 331.312 32.4688C331.188 32.8438 331.219 33.3438 331.406 33.9688C331.219 33.9688 331.062 34.0312 330.938 34.1562C330.875 34.2188 330.812 34.3125 330.75 34.4375C330.688 34.5 330.594 34.5938 330.469 34.7188C330.406 34.7812 330.281 34.7812 330.094 34.7188C330.281 36.0938 330.344 37.4688 330.281 38.8438C330.219 40.2188 330.156 41.625 330.094 43.0625C330.094 44.4375 330.125 45.9062 330.188 47.4688C330.25 48.9688 330.469 50.5312 330.844 52.1562C333.094 50.8438 334.875 49.1562 336.188 47.0938C337.562 45.0312 338.656 42.7188 339.469 40.1562C340.344 37.5938 341 34.8438 341.438 31.9062C341.875 28.9688 342.344 25.9688 342.844 22.9062C343.406 22.3438 343.844 21.6562 344.156 20.8438C344.469 20.0312 344.75 19.1875 345 18.3125C345.25 17.375 345.5 16.4688 345.75 15.5938C346 14.6562 346.312 13.8125 346.688 13.0625C347.625 13.1875 348.406 13.5 349.031 14C349.719 14.4375 350.344 14.9375 350.906 15.5C351.469 16 352.062 16.5 352.688 17C353.312 17.4375 354.094 17.7188 355.031 17.8438C355.781 18.9062 356.469 19.9375 357.094 20.9375C357.719 21.9375 358.125 23 358.312 24.125C358 24.625 357.75 25.1875 357.562 25.8125C357.438 26.4375 357.281 27.0625 357.094 27.6875C356.906 28.3125 356.656 28.9062 356.344 29.4688C356.031 29.9688 355.594 30.4062 355.031 30.7812C354.844 32.4062 354.594 33.9062 354.281 35.2812C354.031 36.5938 353.75 37.9062 353.438 39.2188C353.188 40.5312 352.969 41.9062 352.781 43.3438C352.594 44.7188 352.531 46.25 352.594 47.9375C352.094 49.375 351.562 50.9062 351 52.5312C350.438 54.1562 350 55.625 349.688 56.9375C348.688 57.75 347.906 58.7188 347.344 59.8438C346.781 60.9688 346.188 62.0938 345.562 63.2188C345.312 63.4688 345.156 63.5312 345.094 63.4062C345.031 63.2812 344.812 63.1875 344.438 63.125C344.5 63.375 344.5 63.5625 344.438 63.6875C344.375 63.8125 344.281 63.9375 344.156 64.0625C344.094 64.125 344.031 64.25 343.969 64.4375C343.969 64.625 344.031 64.875 344.156 65.1875C343.281 65.5625 342.5 66.0938 341.812 66.7812C341.125 67.4688 340.375 68.0938 339.562 68.6562C338.812 69.2188 337.875 69.5938 336.75 69.7812C335.688 69.9688 334.281 69.75 332.531 69.125C329.969 67.25 327.688 65.0938 325.688 62.6562C323.75 60.2188 322.156 57.3125 320.906 53.9375ZM364.312 72.3125C363.688 72.3125 362.719 72.2188 361.406 72.0312C360.406 70.9688 359.5 69.5312 358.688 67.7188C357.938 65.8438 357.344 63.875 356.906 61.8125C356.531 59.6875 356.344 57.5938 356.344 55.5312C356.406 53.4062 356.781 51.5312 357.469 49.9062C357.469 49.8438 357.75 49.0938 358.312 47.6562C358.938 46.2188 359.719 44.4062 360.656 42.2188C361.594 39.9688 362.656 37.5 363.844 34.8125C365.031 32.0625 366.219 29.375 367.406 26.75C368.594 24.125 369.719 21.75 370.781 19.625C371.906 17.4375 372.875 15.75 373.688 14.5625C374.25 13.6875 374.75 12.8438 375.188 12.0312C375.688 11.2188 376.156 10.4688 376.594 9.78125C377.281 8.65625 377.906 7.625 378.469 6.6875C379.094 5.6875 379.75 4.8125 380.438 4.0625C381.188 3.25 382 2.5625 382.875 2C383.75 1.375 384.812 0.84375 386.062 0.40625C386.812 0.71875 387.469 1.0625 388.031 1.4375C388.594 1.75 389.094 2.15625 389.531 2.65625L389.812 3.96875C389.938 4.40625 390.125 4.71875 390.375 4.90625C390.688 5.03125 390.938 5.09375 391.125 5.09375C391.938 5.28125 392.625 5.5 393.188 5.75C393.812 5.9375 394.469 6.0625 395.156 6.125C395.406 6.5 395.625 6.875 395.812 7.25C396.062 7.625 396.312 7.96875 396.562 8.28125C397.812 10.0938 398.844 11.8438 399.656 13.5312C400.469 15.2188 400.469 17.0625 399.656 19.0625L399.75 20.0938C400.062 20.5312 400.219 20.9375 400.219 21.3125C400.219 21.6875 400.156 22.2188 400.031 22.9062C399.969 23.4062 399.906 23.9688 399.844 24.5938C399.844 25.1562 399.938 25.7812 400.125 26.4688L400.781 27.2188C401.781 27.7188 402.75 27.9688 403.688 27.9688C404.938 27.9688 406.062 27.6875 407.062 27.125C408.062 26.5625 409 26 409.875 25.4375C410.562 24.9375 411.188 24.5312 411.75 24.2188C412.375 23.9062 412.969 23.6875 413.531 23.5625C414.844 22.3125 416.031 21.2188 417.094 20.2812C418.219 19.2812 419.375 18.2812 420.562 17.2812C422.812 15.4688 425 13.5312 427.125 11.4688C429.25 9.34375 430.938 6.71875 432.188 3.59375C432.875 3.15625 433.656 2.9375 434.531 2.9375C435.406 2.9375 436.281 3.125 437.156 3.5C438.031 3.8125 438.906 4.1875 439.781 4.625C439.969 4.75 440.125 4.84375 440.25 4.90625C440.438 4.96875 440.625 5.0625 440.812 5.1875C440.812 5.875 441.094 6.5 441.656 7.0625C441.969 7.3125 442.188 7.46875 442.312 7.53125C442.438 7.59375 442.562 7.65625 442.688 7.71875C443.188 8.03125 443.594 8.3125 443.906 8.5625C444.281 8.8125 444.562 9.15625 444.75 9.59375C445.312 11.2812 446.25 12.5938 447.562 13.5312C447.438 14.2188 447.469 14.9062 447.656 15.5938C447.844 16.2188 448.062 16.8438 448.312 17.4688C448.438 17.7188 448.531 17.9688 448.594 18.2188C448.656 18.4062 448.75 18.6562 448.875 18.9688L446.812 18.7812L447.094 20.8438C447.281 21.9062 447.188 23.0938 446.812 24.4062C446.5 25.7188 446.125 26.75 445.688 27.5C445.812 29.375 445.875 30.875 445.875 32C445.875 33.0625 445.812 34.0625 445.688 35C445.562 35.9375 445.344 36.8438 445.031 37.7188C444.781 38.5312 444.438 39.4062 444 40.3438C444.25 45.0938 443.688 49.4375 442.312 53.375C441 57.3125 439.562 61 438 64.4375C437.812 64.875 437.625 65.2812 437.438 65.6562C437.25 66.0312 437.094 66.4062 436.969 66.7812C436.281 66.9688 435.656 67.1875 435.094 67.4375C434.531 67.6875 434 67.9688 433.5 68.2812C432.812 68.7188 432.125 69.0938 431.438 69.4062C430.75 69.6562 430.031 69.7812 429.281 69.7812C426.281 67.5938 424.719 63.8125 424.594 58.4375C424.531 53.0625 425.688 46.2188 428.062 37.9062C428.5 37.5938 428.688 37.125 428.625 36.5V35.4688L427.688 35.375C427.375 35.375 427.094 35.4062 426.844 35.4688C426.594 35.5312 426.406 35.8125 426.281 36.3125C424.281 37.75 422.094 39.25 419.719 40.8125C417.406 42.3125 415 43.7188 412.5 45.0312C410 46.2812 407.438 47.3438 404.812 48.2188C402.25 49.0312 399.75 49.4375 397.312 49.4375C391.062 49.4375 386.344 46.25 383.156 39.875L382.312 38.1875L381.375 39.6875C381.188 40 380.844 40.625 380.344 41.5625C379.906 42.4375 379.438 43.4688 378.938 44.6562C378.5 45.8438 378.094 47.0625 377.719 48.3125C377.406 49.5625 377.312 50.6562 377.438 51.5938C376.688 52.2812 375.938 53.0625 375.188 53.9375C374.5 54.8125 374 55.8125 373.688 56.9375C373.562 57.25 373.531 57.5625 373.594 57.875C373.656 58.125 373.75 58.4062 373.875 58.7188C373.812 59.1562 373.688 59.4688 373.5 59.6562C373.312 59.8438 373.094 60.0312 372.844 60.2188C372.531 60.5312 372.219 60.875 371.906 61.25C371.594 61.5625 371.312 61.9375 371.062 62.375C370.938 62.75 370.844 63.1562 370.781 63.5938C370.719 63.9688 370.656 64.3125 370.594 64.625C370.594 65.3125 370.5 65.7812 370.312 66.0312C369.688 67.3438 369.125 68.4375 368.625 69.3125C368.188 70.125 367.75 70.75 367.312 71.1875C366.875 71.625 366.406 71.9062 365.906 72.0312C365.469 72.2188 364.938 72.3125 364.312 72.3125ZM504 42.875C503.938 43.625 504 44.3438 504.188 45.0312C504.375 45.7188 504.594 46.4062 504.844 47.0938C505.156 47.7188 505.438 48.375 505.688 49.0625C505.938 49.75 506.125 50.4375 506.25 51.125C506.375 52 506.375 52.9688 506.25 54.0312C506.125 55.0312 505.906 56.0312 505.594 57.0312C505.281 57.9688 504.875 58.8438 504.375 59.6562C503.875 60.4062 503.281 60.9688 502.594 61.3438C501.719 62.4688 500.656 63.3438 499.406 63.9688C498.156 64.5938 497 65.3438 495.938 66.2188C495.25 66.6562 494.469 66.9688 493.594 67.1562C492.781 67.3438 491.938 67.5312 491.062 67.7188C490.375 68.0938 489.562 68.5 488.625 68.9375C487.688 69.3125 486.719 69.6875 485.719 70.0625C484.719 70.375 483.719 70.625 482.719 70.8125C481.719 70.9375 480.844 70.9688 480.094 70.9062C478.219 71.5938 476.375 72.0312 474.562 72.2188C472.812 72.4688 470.75 72.3438 468.375 71.8438C466.125 72.1562 464.031 72.0625 462.094 71.5625C460.219 71.0625 458.531 70.2812 457.031 69.2188C455.594 68.0938 454.312 66.7812 453.188 65.2812C452.125 63.7188 451.25 62.0938 450.562 60.4062C450.062 56.8438 450.188 53.625 450.938 50.75C451.688 47.8125 452.75 45.125 454.125 42.6875C455.562 40.1875 457.188 37.9062 459 35.8438C460.812 33.7188 462.562 31.6562 464.25 29.6562C464.625 29.7812 464.906 29.7812 465.094 29.6562C465.344 29.4688 465.562 29.25 465.75 29C465.938 28.6875 466.125 28.4062 466.312 28.1562C466.562 27.9062 466.844 27.75 467.156 27.6875C467.594 26.75 468.219 26.0625 469.031 25.625C469.906 25.125 470.594 24.4375 471.094 23.5625C471.656 23.4375 472.125 23.25 472.5 23C472.875 22.75 473.219 22.4688 473.531 22.1562C473.906 21.8438 474.281 21.5625 474.656 21.3125C475.031 21 475.469 20.7812 475.969 20.6562V19.625C477.094 19.125 477.906 18.5625 478.406 17.9375C478.969 17.25 479.625 16.4375 480.375 15.5C480.938 15.4375 481.375 15.4062 481.688 15.4062C482.062 15.4062 482.594 15.3438 483.281 15.2188C483.781 14.3438 484.219 13.6875 484.594 13.25C485.031 12.8125 485.656 12.3438 486.469 11.8438C487.219 12.2188 488.031 12.4688 488.906 12.5938C489.844 12.7188 490.656 13.125 491.344 13.8125C491.406 14.4375 491.594 14.9375 491.906 15.3125C492.219 15.625 492.562 15.9375 492.938 16.25C493.312 16.5 493.656 16.7812 493.969 17.0938C494.344 17.4062 494.594 17.8438 494.719 18.4062C494.969 18.4688 495.125 18.4375 495.188 18.3125C495.312 18.1875 495.5 18.1562 495.75 18.2188C495.938 19.0938 496.156 19.6875 496.406 20C496.656 20.25 496.906 20.7812 497.156 21.5938C496.844 22.2188 496.594 22.875 496.406 23.5625C496.281 24.1875 495.906 24.6562 495.281 24.9688C495.219 25.4062 495.344 25.6562 495.656 25.7188C495.969 25.7188 496.156 25.875 496.219 26.1875C496.281 26.75 496.188 27.1562 495.938 27.4062C497.438 29.8438 498.781 32.4375 499.969 35.1875C501.156 37.875 502.5 40.4375 504 42.875ZM492.281 51.7812C492.531 51.0938 492.844 50.5312 493.219 50.0938C493.656 49.6562 493.906 49 493.969 48.125C493.656 47.625 493.469 47.25 493.406 47C493.344 46.6875 493.312 46.2188 493.312 45.5938C491.938 43.6562 490.75 41.5938 489.75 39.4062C488.75 37.1562 487.625 35.0625 486.375 33.125C486.25 33.375 486.031 33.625 485.719 33.875C485.406 34.125 485.062 34.0625 484.688 33.6875C484.562 34.1875 484.344 34.5625 484.031 34.8125C483.719 35 483.375 35.0938 483 35.0938C482.625 35.0312 482.219 34.9375 481.781 34.8125C481.406 34.625 481.062 34.4062 480.75 34.1562C478.938 35.5938 477.125 37 475.312 38.375C473.5 39.75 471.875 41.3438 470.438 43.1562C470.188 43.2812 470.031 43.3438 469.969 43.3438C469.906 43.2812 469.719 43.3125 469.406 43.4375C468.906 44.625 468.281 45.7188 467.531 46.7188C466.844 47.6562 466.156 48.625 465.469 49.625C464.781 50.625 464.188 51.6875 463.688 52.8125C463.188 53.9375 462.906 55.25 462.844 56.75C463.906 57.625 465.156 58.1562 466.594 58.3438C468.031 58.5312 469.5 58.5625 471 58.4375C472.562 58.3125 474.062 58.125 475.5 57.875C477 57.5625 478.375 57.4062 479.625 57.4062C482.25 56.7812 484.5 55.9688 486.375 54.9688C488.25 53.9062 490.219 52.8438 492.281 51.7812ZM558.281 25.9062C556.719 25.9062 555.031 26.0312 553.219 26.2812C551.406 26.4688 549.625 26.6875 547.875 26.9375C546.625 27.125 545.406 27.2812 544.219 27.4062C543.094 27.5312 542.062 27.625 541.125 27.6875C540.688 29.0625 540.25 30.2812 539.812 31.3438C539.375 32.4062 538.906 33.4375 538.406 34.4375C537.906 35.5 537.438 36.5938 537 37.7188C536.625 38.7812 536.25 39.9375 535.875 41.1875C535.25 42.1875 534.719 43.125 534.281 44C533.906 44.8125 533.594 45.75 533.344 46.8125C532.594 47.75 532.031 48.75 531.656 49.8125C531.281 50.8125 531 51.6875 530.812 52.4375L530.438 53.5625C530.062 53.9375 529.844 54.25 529.781 54.5C529.719 54.6875 529.562 54.875 529.312 55.0625C529.25 55.75 529.031 56.4375 528.656 57.125C528.531 57.4375 528.438 57.75 528.375 58.0625C528.312 58.3125 528.281 58.5 528.281 58.625C528.281 59.25 528.125 59.6562 527.812 59.8438C527.875 60.1562 527.875 60.5 527.812 60.875C527.75 61.1875 527.688 61.5 527.625 61.8125C527.438 62.5625 527.375 63.1562 527.438 63.5938C527.625 63.8438 527.781 64.0625 527.906 64.25C528.094 64.4375 528.219 64.6875 528.281 65C528.656 65.25 528.938 65.4062 529.125 65.4688C529.375 65.6562 529.75 65.875 530.25 66.125L531.094 67.0625C531.406 68.875 531.125 70.3125 530.25 71.375C529.312 72.5625 527.719 73.1562 525.469 73.1562H524.344C524.031 72.8438 523.844 72.5938 523.781 72.4062C523.281 72.2188 522.875 72.0625 522.562 71.9375C522.25 71.8125 521.969 71.5625 521.719 71.1875C520.906 70.8125 520.25 70.5 519.75 70.25L518.906 69.7812C518.906 69.0938 518.906 68.7188 518.906 68.6562C518.469 68.0938 518.125 67.4688 517.875 66.7812C517.688 66.0938 517.531 65.4062 517.406 64.7188C517.281 64.1562 517.125 63.625 516.938 63.125C516.812 62.625 516.625 62.1875 516.375 61.8125C516.25 58.1875 516.594 55.125 517.406 52.625C518.219 50.125 519.062 47.7188 519.938 45.4062C520.438 44.1562 520.938 42.9062 521.438 41.6562C521.938 40.3438 522.375 39 522.75 37.625L523.594 36.6875C524.031 35.6875 524.375 34.875 524.625 34.25C524.938 33.5625 525.25 32.875 525.562 32.1875C525.75 31.75 525.906 31.3438 526.031 30.9688C526.219 30.5312 526.375 30.1562 526.5 29.8438C526.125 29.8438 525.781 29.875 525.469 29.9375C525.156 29.9375 524.844 29.9688 524.531 30.0312C524.156 30.0938 523.812 30.1562 523.5 30.2188C523.188 30.2188 522.875 30.2188 522.562 30.2188C522.125 30.2188 521.812 30.1875 521.625 30.125C520.938 30.4375 520.188 30.5938 519.375 30.5938H518.438C518.25 30.5938 518.062 30.5938 517.875 30.5938C517.75 30.5312 517.625 30.5 517.5 30.5C516.875 30.5 516.375 30.5938 516 30.7812C515.25 30.7812 514.531 30.7812 513.844 30.7812H512.906C512.781 30.7812 512.625 30.8125 512.438 30.875C512.25 30.875 512.094 30.875 511.969 30.875C511.531 30.875 511.062 30.8438 510.562 30.7812C510.062 30.6562 509.531 30.4375 508.969 30.125C508.219 29.125 507.719 28.5938 507.469 28.5312L506.625 27.4062C506.562 27.0312 506.469 26.6875 506.344 26.375C506.219 26 506.094 25.5938 505.969 25.1562C505.719 24.5312 505.469 23.875 505.219 23.1875C505.031 22.4375 504.938 21.5625 504.938 20.5625C505 20.0625 505.125 19.6875 505.312 19.4375C505.5 19.1875 505.656 18.9688 505.781 18.7812L506.062 17.375L507.281 17.4688H509.906C511.906 17.4688 513.938 17.4062 516 17.2812C518.062 17.0938 520.188 16.9062 522.375 16.7188C523.625 16.5938 524.875 16.4688 526.125 16.3438C527.438 16.2188 528.781 16.0938 530.156 15.9688C530.406 15.4062 530.656 14.875 530.906 14.375L531.844 13.9062C532.969 13.8438 533.75 14 534.188 14.375C534.688 14.6875 535.094 15 535.406 15.3125C536.781 15.1875 538.156 15.0625 539.531 14.9375C540.969 14.75 542.406 14.5312 543.844 14.2812C545.969 13.9688 548.094 13.6875 550.219 13.4375C552.406 13.1875 554.5 13.0625 556.5 13.0625C557.375 13.0625 558.219 13.0938 559.031 13.1562C559.844 13.2188 560.594 13.3125 561.281 13.4375L562.219 14.0938C562.406 14.4688 562.656 14.8125 562.969 15.125C563.344 15.4375 563.719 15.75 564.094 16.0625C564.844 16.75 565.594 17.5625 566.344 18.5C567.094 19.4375 567.375 20.8125 567.188 22.625C566.688 23.375 566.312 23.8125 566.062 23.9375L565.219 25.0625L564.281 24.9688C563.906 24.9688 563.562 25.0312 563.25 25.1562C562.938 25.2188 562.625 25.3125 562.312 25.4375C562.062 25.5625 561.812 25.6875 561.562 25.8125C561.312 25.875 561.031 25.9375 560.719 26C560.156 26 559.688 26 559.312 26C559 25.9375 558.656 25.9062 558.281 25.9062ZM602.719 42.875C602.656 43.625 602.719 44.3438 602.906 45.0312C603.094 45.7188 603.312 46.4062 603.562 47.0938C603.875 47.7188 604.156 48.375 604.406 49.0625C604.656 49.75 604.844 50.4375 604.969 51.125C605.094 52 605.094 52.9688 604.969 54.0312C604.844 55.0312 604.625 56.0312 604.312 57.0312C604 57.9688 603.594 58.8438 603.094 59.6562C602.594 60.4062 602 60.9688 601.312 61.3438C600.438 62.4688 599.375 63.3438 598.125 63.9688C596.875 64.5938 595.719 65.3438 594.656 66.2188C593.969 66.6562 593.188 66.9688 592.312 67.1562C591.5 67.3438 590.656 67.5312 589.781 67.7188C589.094 68.0938 588.281 68.5 587.344 68.9375C586.406 69.3125 585.438 69.6875 584.438 70.0625C583.438 70.375 582.438 70.625 581.438 70.8125C580.438 70.9375 579.562 70.9688 578.812 70.9062C576.938 71.5938 575.094 72.0312 573.281 72.2188C571.531 72.4688 569.469 72.3438 567.094 71.8438C564.844 72.1562 562.75 72.0625 560.812 71.5625C558.938 71.0625 557.25 70.2812 555.75 69.2188C554.312 68.0938 553.031 66.7812 551.906 65.2812C550.844 63.7188 549.969 62.0938 549.281 60.4062C548.781 56.8438 548.906 53.625 549.656 50.75C550.406 47.8125 551.469 45.125 552.844 42.6875C554.281 40.1875 555.906 37.9062 557.719 35.8438C559.531 33.7188 561.281 31.6562 562.969 29.6562C563.344 29.7812 563.625 29.7812 563.812 29.6562C564.062 29.4688 564.281 29.25 564.469 29C564.656 28.6875 564.844 28.4062 565.031 28.1562C565.281 27.9062 565.562 27.75 565.875 27.6875C566.312 26.75 566.938 26.0625 567.75 25.625C568.625 25.125 569.312 24.4375 569.812 23.5625C570.375 23.4375 570.844 23.25 571.219 23C571.594 22.75 571.938 22.4688 572.25 22.1562C572.625 21.8438 573 21.5625 573.375 21.3125C573.75 21 574.188 20.7812 574.688 20.6562V19.625C575.812 19.125 576.625 18.5625 577.125 17.9375C577.688 17.25 578.344 16.4375 579.094 15.5C579.656 15.4375 580.094 15.4062 580.406 15.4062C580.781 15.4062 581.312 15.3438 582 15.2188C582.5 14.3438 582.938 13.6875 583.312 13.25C583.75 12.8125 584.375 12.3438 585.188 11.8438C585.938 12.2188 586.75 12.4688 587.625 12.5938C588.562 12.7188 589.375 13.125 590.062 13.8125C590.125 14.4375 590.312 14.9375 590.625 15.3125C590.938 15.625 591.281 15.9375 591.656 16.25C592.031 16.5 592.375 16.7812 592.688 17.0938C593.062 17.4062 593.312 17.8438 593.438 18.4062C593.688 18.4688 593.844 18.4375 593.906 18.3125C594.031 18.1875 594.219 18.1562 594.469 18.2188C594.656 19.0938 594.875 19.6875 595.125 20C595.375 20.25 595.625 20.7812 595.875 21.5938C595.562 22.2188 595.312 22.875 595.125 23.5625C595 24.1875 594.625 24.6562 594 24.9688C593.938 25.4062 594.062 25.6562 594.375 25.7188C594.688 25.7188 594.875 25.875 594.938 26.1875C595 26.75 594.906 27.1562 594.656 27.4062C596.156 29.8438 597.5 32.4375 598.688 35.1875C599.875 37.875 601.219 40.4375 602.719 42.875ZM591 51.7812C591.25 51.0938 591.562 50.5312 591.938 50.0938C592.375 49.6562 592.625 49 592.688 48.125C592.375 47.625 592.188 47.25 592.125 47C592.062 46.6875 592.031 46.2188 592.031 45.5938C590.656 43.6562 589.469 41.5938 588.469 39.4062C587.469 37.1562 586.344 35.0625 585.094 33.125C584.969 33.375 584.75 33.625 584.438 33.875C584.125 34.125 583.781 34.0625 583.406 33.6875C583.281 34.1875 583.062 34.5625 582.75 34.8125C582.438 35 582.094 35.0938 581.719 35.0938C581.344 35.0312 580.938 34.9375 580.5 34.8125C580.125 34.625 579.781 34.4062 579.469 34.1562C577.656 35.5938 575.844 37 574.031 38.375C572.219 39.75 570.594 41.3438 569.156 43.1562C568.906 43.2812 568.75 43.3438 568.688 43.3438C568.625 43.2812 568.438 43.3125 568.125 43.4375C567.625 44.625 567 45.7188 566.25 46.7188C565.562 47.6562 564.875 48.625 564.188 49.625C563.5 50.625 562.906 51.6875 562.406 52.8125C561.906 53.9375 561.625 55.25 561.562 56.75C562.625 57.625 563.875 58.1562 565.312 58.3438C566.75 58.5312 568.219 58.5625 569.719 58.4375C571.281 58.3125 572.781 58.125 574.219 57.875C575.719 57.5625 577.094 57.4062 578.344 57.4062C580.969 56.7812 583.219 55.9688 585.094 54.9688C586.969 53.9062 588.938 52.8438 591 51.7812Z" stroke="currentColor" stroke-width="30" stroke-linecap="round" stroke-linejoin="round" mask="url(#path-1-inside-1)"/>
</svg>
